{
	"asset":{
		"generator":"Khronos glTF Blender I/O v3.5.30",
		"version":"2.0"
	},
	"extensionsUsed":[
		"KHR_materials_specular",
		"KHR_materials_ior"
	],
	"scene":0,
	"scenes":[
		{
			"name":"Scene",
			"nodes":[
				0,
				1,
				2,
				3,
				4,
				5,
				6
			]
		}
	],
	"nodes":[
		{
			"name":"25",
			"rotation":[
				0.7071068286895752,
				0,
				0,
				0.7071068286895752
			],
			"scale":[
				0.009999999776482582,
				0.009999999776482582,
				0.009999999776482582
			],
			"translation":[
				5.043615818023682,
				1.30275297164917,
				-1.0499259233474731
			]
		},
		{
			"name":"25.Target",
			"scale":[
				0.009999999776482582,
				0.009999999776482582,
				0.009999999776482582
			],
			"translation":[
				5.043617248535156,
				1.30275297164917,
				-4.374572277069092
			]
		},
		{
			"mesh":0,
			"name":"Circle058",
			"rotation":[
				-0.5000000596046448,
				0.4999999403953552,
				0.49999988079071045,
				0.5000001192092896
			],
			"scale":[
				-0.009999999776482582,
				-0.009999999776482582,
				-0.009999999776482582
			],
			"translation":[
				-0.2873317003250122,
				0.6983271837234497,
				0.00344103598035872
			]
		},
		{
			"mesh":1,
			"name":"Object6230",
			"rotation":[
				1,
				0,
				0,
				1.9470718370939721e-07
			],
			"scale":[
				-0.009999999776482582,
				-0.009999999776482582,
				-0.009999999776482582
			],
			"translation":[
				-6.857215404510498,
				0.006250243633985519,
				-0.06227308139204979
			]
		},
		{
			"name":"026",
			"rotation":[
				0.7071068286895752,
				0,
				0,
				0.7071068286895752
			],
			"scale":[
				0.009999999776482582,
				0.009999999776482582,
				0.009999999776482582
			],
			"translation":[
				5.043615818023682,
				1.30275297164917,
				-1.0499259233474731
			]
		},
		{
			"name":"026.Target",
			"scale":[
				0.009999999776482582,
				0.009999999776482582,
				0.009999999776482582
			],
			"translation":[
				5.043617248535156,
				1.30275297164917,
				-4.374572277069092
			]
		},
		{
			"mesh":2,
			"name":"Korpys041",
			"scale":[
				0.009999999776482582,
				0.009999999776482582,
				0.009999999776482582
			],
			"translation":[
				6.847700595855713,
				0.006249979604035616,
				-0.06029292568564415
			]
		}
	],
	"animations":[
		{
			"channels":[
				{
					"sampler":0,
					"target":{
						"node":0,
						"path":"translation"
					}
				},
				{
					"sampler":1,
					"target":{
						"node":0,
						"path":"rotation"
					}
				},
				{
					"sampler":2,
					"target":{
						"node":0,
						"path":"scale"
					}
				}
			],
			"name":"25|Take 001|BaseLayer",
			"samplers":[
				{
					"input":14,
					"interpolation":"LINEAR",
					"output":15
				},
				{
					"input":14,
					"interpolation":"LINEAR",
					"output":16
				},
				{
					"input":14,
					"interpolation":"LINEAR",
					"output":17
				}
			]
		},
		{
			"channels":[
				{
					"sampler":0,
					"target":{
						"node":4,
						"path":"translation"
					}
				},
				{
					"sampler":1,
					"target":{
						"node":4,
						"path":"rotation"
					}
				},
				{
					"sampler":2,
					"target":{
						"node":4,
						"path":"scale"
					}
				}
			],
			"name":"026|Take 001|BaseLayer",
			"samplers":[
				{
					"input":14,
					"interpolation":"LINEAR",
					"output":18
				},
				{
					"input":14,
					"interpolation":"LINEAR",
					"output":19
				},
				{
					"input":14,
					"interpolation":"LINEAR",
					"output":20
				}
			]
		}
	],
	"materials":[
		{
			"doubleSided":true,
			"extensions":{
				"KHR_materials_specular":{
					"specularColorFactor":[
						2.371357614441398,
						2.371357614441398,
						2.371357614441398
					]
				},
				"KHR_materials_ior":{
					"ior":1.4500000476837158
				}
			},
			"name":"Material #2147455584",
			"pbrMetallicRoughness":{
				"baseColorFactor":[
					0.2705882489681244,
					0.2705882489681244,
					0.2666666805744171,
					1
				],
				"metallicFactor":0,
				"roughnessFactor":0.5527864098548889
			}
		},
		{
			"doubleSided":true,
			"extensions":{
				"KHR_materials_specular":{
					"specularColorFactor":[
						2.371357614441398,
						2.371357614441398,
						2.371357614441398
					]
				},
				"KHR_materials_ior":{
					"ior":1.4500000476837158
				}
			},
			"name":"Material #2147455583",
			"pbrMetallicRoughness":{
				"baseColorFactor":[
					0.019607843831181526,
					0.019607843831181526,
					0.019607843831181526,
					1
				],
				"metallicRoughnessTexture":{
					"index":0
				},
				"roughnessFactor":0.5527864098548889
			}
		},
		{
			"doubleSided":true,
			"extensions":{
				"KHR_materials_specular":{
					"specularColorFactor":[
						2.371357614441398,
						2.371357614441398,
						2.371357614441398
					]
				},
				"KHR_materials_ior":{
					"ior":1.4500000476837158
				}
			},
			"name":"BACK",
			"pbrMetallicRoughness":{
				"baseColorFactor":[
					0.7058823704719543,
					0.7058823704719543,
					0.6901960968971252,
					1
				],
				"metallicFactor":0,
				"roughnessFactor":0.5527864098548889
			}
		},
		{
			"doubleSided":true,
			"extensions":{
				"KHR_materials_specular":{
					"specularColorFactor":[
						2.371357614441398,
						2.371357614441398,
						2.371357614441398
					]
				},
				"KHR_materials_ior":{
					"ior":1.4500000476837158
				}
			},
			"name":"CORPUS_White",
			"pbrMetallicRoughness":{
				"baseColorFactor":[
					0.8588235974311829,
					0.8588235974311829,
					0.8431373238563538,
					1
				],
				"metallicFactor":0,
				"roughnessFactor":0.5527864098548889
			}
		}
	],
	"meshes":[
		{
			"name":"Mesh",
			"primitives":[
				{
					"attributes":{
						"POSITION":0,
						"NORMAL":1
					},
					"indices":2,
					"material":0
				},
				{
					"attributes":{
						"POSITION":3,
						"NORMAL":4
					},
					"indices":5,
					"material":1
				}
			]
		},
		{
			"name":"Mesh.001",
			"primitives":[
				{
					"attributes":{
						"POSITION":6,
						"TEXCOORD_0":7,
						"NORMAL":8
					},
					"indices":9,
					"material":2
				}
			]
		},
		{
			"name":"Mesh.002",
			"primitives":[
				{
					"attributes":{
						"POSITION":10,
						"TEXCOORD_0":11,
						"NORMAL":12
					},
					"indices":13,
					"material":3
				}
			]
		}
	],
	"textures":[
		{
			"sampler":0,
			"source":0
		}
	],
	"images":[
		{
			"bufferView":6,
			"mimeType":"image/png",
			"name":"Image"
		}
	],
	"accessors":[
		{
			"bufferView":0,
			"componentType":5126,
			"count":480,
			"max":[
				0.9066108465194702,
				57.316978454589844,
				2.6632156372070312
			],
			"min":[
				-0.9066033959388733,
				0.30167722702026367,
				-1.8497204780578613
			],
			"type":"VEC3"
		},
		{
			"bufferView":1,
			"componentType":5126,
			"count":480,
			"type":"VEC3"
		},
		{
			"bufferView":2,
			"componentType":5123,
			"count":1392,
			"type":"SCALAR"
		},
		{
			"bufferView":3,
			"componentType":5126,
			"count":120,
			"max":[
				0.8053207397460938,
				55.34123611450195,
				1.6189231872558594
			],
			"min":[
				-0.805312991142273,
				2.0754661560058594,
				-0.8054276704788208
			],
			"type":"VEC3"
		},
		{
			"bufferView":4,
			"componentType":5126,
			"count":120,
			"type":"VEC3"
		},
		{
			"bufferView":5,
			"componentType":5123,
			"count":348,
			"type":"SCALAR"
		},
		{
			"bufferView":7,
			"componentType":5126,
			"count":96,
			"max":[
				-657.2546997070312,
				199.69635009765625,
				-20.6488037109375
			],
			"min":[
				-714.348388671875,
				2.86761474609375,
				-21.387956619262695
			],
			"type":"VEC3"
		},
		{
			"bufferView":8,
			"componentType":5126,
			"count":96,
			"type":"VEC2"
		},
		{
			"bufferView":9,
			"componentType":5126,
			"count":96,
			"type":"VEC3"
		},
		{
			"bufferView":10,
			"componentType":5123,
			"count":132,
			"type":"SCALAR"
		},
		{
			"bufferView":11,
			"componentType":5126,
			"count":864,
			"max":[
				-654.6932983398438,
				200.82711791992188,
				35.61223602294922
			],
			"min":[
				-714.6988525390625,
				-1.52587890625e-05,
				-21.388042449951172
			],
			"type":"VEC3"
		},
		{
			"bufferView":12,
			"componentType":5126,
			"count":864,
			"type":"VEC2"
		},
		{
			"bufferView":13,
			"componentType":5126,
			"count":864,
			"type":"VEC3"
		},
		{
			"bufferView":14,
			"componentType":5123,
			"count":1188,
			"type":"SCALAR"
		},
		{
			"bufferView":15,
			"componentType":5126,
			"count":101,
			"max":[
				3.3666666666666667
			],
			"min":[
				0.03333333333333333
			],
			"type":"SCALAR"
		},
		{
			"bufferView":16,
			"componentType":5126,
			"count":101,
			"type":"VEC3"
		},
		{
			"bufferView":17,
			"componentType":5126,
			"count":101,
			"type":"VEC4"
		},
		{
			"bufferView":18,
			"componentType":5126,
			"count":101,
			"type":"VEC3"
		},
		{
			"bufferView":19,
			"componentType":5126,
			"count":101,
			"type":"VEC3"
		},
		{
			"bufferView":20,
			"componentType":5126,
			"count":101,
			"type":"VEC4"
		},
		{
			"bufferView":21,
			"componentType":5126,
			"count":101,
			"type":"VEC3"
		}
	],
	"bufferViews":[
		{
			"buffer":0,
			"byteLength":5760,
			"byteOffset":0,
			"target":34962
		},
		{
			"buffer":0,
			"byteLength":5760,
			"byteOffset":5760,
			"target":34962
		},
		{
			"buffer":0,
			"byteLength":2784,
			"byteOffset":11520,
			"target":34963
		},
		{
			"buffer":0,
			"byteLength":1440,
			"byteOffset":14304,
			"target":34962
		},
		{
			"buffer":0,
			"byteLength":1440,
			"byteOffset":15744,
			"target":34962
		},
		{
			"buffer":0,
			"byteLength":696,
			"byteOffset":17184,
			"target":34963
		},
		{
			"buffer":0,
			"byteLength":90,
			"byteOffset":17880
		},
		{
			"buffer":0,
			"byteLength":1152,
			"byteOffset":17972,
			"target":34962
		},
		{
			"buffer":0,
			"byteLength":768,
			"byteOffset":19124,
			"target":34962
		},
		{
			"buffer":0,
			"byteLength":1152,
			"byteOffset":19892,
			"target":34962
		},
		{
			"buffer":0,
			"byteLength":264,
			"byteOffset":21044,
			"target":34963
		},
		{
			"buffer":0,
			"byteLength":10368,
			"byteOffset":21308,
			"target":34962
		},
		{
			"buffer":0,
			"byteLength":6912,
			"byteOffset":31676,
			"target":34962
		},
		{
			"buffer":0,
			"byteLength":10368,
			"byteOffset":38588,
			"target":34962
		},
		{
			"buffer":0,
			"byteLength":2376,
			"byteOffset":48956,
			"target":34963
		},
		{
			"buffer":0,
			"byteLength":404,
			"byteOffset":51332
		},
		{
			"buffer":0,
			"byteLength":1212,
			"byteOffset":51736
		},
		{
			"buffer":0,
			"byteLength":1616,
			"byteOffset":52948
		},
		{
			"buffer":0,
			"byteLength":1212,
			"byteOffset":54564
		},
		{
			"buffer":0,
			"byteLength":1212,
			"byteOffset":55776
		},
		{
			"buffer":0,
			"byteLength":1616,
			"byteOffset":56988
		},
		{
			"buffer":0,
			"byteLength":1212,
			"byteOffset":58604
		}
	],
	"samplers":[
		{
			"magFilter":9729,
			"minFilter":9987
		}
	],
	"buffers":[
		{
			"byteLength":59816,
			"uri":"data:application/octet-stream;base64,"
		}
	]
}
