{
	"asset":{
		"generator":"Khronos glTF Blender I/O v3.5.30",
		"version":"2.0"
	},
	"extensionsUsed":[
		"KHR_materials_specular",
		"KHR_materials_ior"
	],
	"scene":0,
	"scenes":[
		{
			"name":"Scene",
			"nodes":[
				5
			]
		}
	],
	"nodes":[
		{
			"mesh":0,
			"name":"Circle056",
			"rotation":[
				-0.5,
				0.5,
				0.5,
				0.5000000596046448
			],
			"scale":[
				-1,
				-1,
				-1
			],
			"translation":[
				-4.10494327545166,
				87.49214172363281,
				-0.7391689419746399
			]
		},
		{
			"mesh":1,
			"name":"Circle060",
			"rotation":[
				-0.5,
				0.5,
				0.5,
				0.5000000596046448
			],
			"scale":[
				-1,
				-1,
				-1
			],
			"translation":[
				-43.42304611206055,
				-31.204879760742188,
				-0.7391844391822815
			]
		},
		{
			"mesh":2,
			"name":"Korpys041",
			"translation":[
				668.7184448242188,
				-100.41101837158203,
				-7.112640857696533
			]
		},
		{
			"mesh":3,
			"name":"Korpys042",
			"translation":[
				665.891845703125,
				-100.41105651855469,
				-7.111227035522461
			]
		},
		{
			"mesh":4,
			"name":"Object6230",
			"rotation":[
				1,
				0,
				0,
				7.549789415861596e-08
			],
			"scale":[
				-1,
				-1,
				-1
			],
			"translation":[
				-710.2952880859375,
				-100.4110336303711,
				-7.112683296203613
			]
		},
		{
			"children":[
				0,
				1,
				2,
				3,
				4
			],
			"name":"Group001",
			"rotation":[
				1,
				0,
				0,
				7.549789415861596e-08
			],
			"scale":[
				-0.009999999776482582,
				-0.009999999776482582,
				-0.009999999776482582
			],
			"translation":[
				-8.850097401591484e-06,
				1.010360598564148,
				0.010805683210492134
			]
		}
	],
	"animations":[
		{
			"channels":[
				{
					"sampler":0,
					"target":{
						"node":5,
						"path":"translation"
					}
				},
				{
					"sampler":1,
					"target":{
						"node":5,
						"path":"rotation"
					}
				},
				{
					"sampler":2,
					"target":{
						"node":5,
						"path":"scale"
					}
				}
			],
			"name":"Group001|Take 001|BaseLayer",
			"samplers":[
				{
					"input":22,
					"interpolation":"STEP",
					"output":23
				},
				{
					"input":22,
					"interpolation":"STEP",
					"output":24
				},
				{
					"input":22,
					"interpolation":"STEP",
					"output":25
				}
			]
		},
		{
			"channels":[
				{
					"sampler":0,
					"target":{
						"node":0,
						"path":"translation"
					}
				},
				{
					"sampler":1,
					"target":{
						"node":0,
						"path":"rotation"
					}
				},
				{
					"sampler":2,
					"target":{
						"node":0,
						"path":"scale"
					}
				}
			],
			"name":"Circle056|Take 001|BaseLayer",
			"samplers":[
				{
					"input":22,
					"interpolation":"STEP",
					"output":26
				},
				{
					"input":22,
					"interpolation":"STEP",
					"output":27
				},
				{
					"input":22,
					"interpolation":"STEP",
					"output":28
				}
			]
		},
		{
			"channels":[
				{
					"sampler":0,
					"target":{
						"node":1,
						"path":"translation"
					}
				},
				{
					"sampler":1,
					"target":{
						"node":1,
						"path":"rotation"
					}
				},
				{
					"sampler":2,
					"target":{
						"node":1,
						"path":"scale"
					}
				}
			],
			"name":"Circle060|Take 001|BaseLayer",
			"samplers":[
				{
					"input":22,
					"interpolation":"STEP",
					"output":29
				},
				{
					"input":22,
					"interpolation":"STEP",
					"output":30
				},
				{
					"input":22,
					"interpolation":"STEP",
					"output":31
				}
			]
		},
		{
			"channels":[
				{
					"sampler":0,
					"target":{
						"node":2,
						"path":"translation"
					}
				},
				{
					"sampler":1,
					"target":{
						"node":2,
						"path":"rotation"
					}
				},
				{
					"sampler":2,
					"target":{
						"node":2,
						"path":"scale"
					}
				}
			],
			"name":"Korpys041|Take 001|BaseLayer",
			"samplers":[
				{
					"input":22,
					"interpolation":"STEP",
					"output":32
				},
				{
					"input":22,
					"interpolation":"STEP",
					"output":33
				},
				{
					"input":22,
					"interpolation":"STEP",
					"output":34
				}
			]
		},
		{
			"channels":[
				{
					"sampler":0,
					"target":{
						"node":3,
						"path":"translation"
					}
				},
				{
					"sampler":1,
					"target":{
						"node":3,
						"path":"rotation"
					}
				},
				{
					"sampler":2,
					"target":{
						"node":3,
						"path":"scale"
					}
				}
			],
			"name":"Korpys042|Take 001|BaseLayer",
			"samplers":[
				{
					"input":22,
					"interpolation":"STEP",
					"output":35
				},
				{
					"input":22,
					"interpolation":"STEP",
					"output":36
				},
				{
					"input":22,
					"interpolation":"STEP",
					"output":37
				}
			]
		},
		{
			"channels":[
				{
					"sampler":0,
					"target":{
						"node":4,
						"path":"translation"
					}
				},
				{
					"sampler":1,
					"target":{
						"node":4,
						"path":"rotation"
					}
				},
				{
					"sampler":2,
					"target":{
						"node":4,
						"path":"scale"
					}
				}
			],
			"name":"Object6230|Take 001|BaseLayer",
			"samplers":[
				{
					"input":22,
					"interpolation":"STEP",
					"output":38
				},
				{
					"input":22,
					"interpolation":"STEP",
					"output":39
				},
				{
					"input":22,
					"interpolation":"STEP",
					"output":40
				}
			]
		}
	],
	"materials":[
		{
			"doubleSided":true,
			"extensions":{
				"KHR_materials_specular":{
					"specularColorFactor":[
						2.371357614441398,
						2.371357614441398,
						2.371357614441398
					]
				},
				"KHR_materials_ior":{
					"ior":1.4500000476837158
				}
			},
			"name":"Material #28",
			"pbrMetallicRoughness":{
				"baseColorFactor":[
					0.2705882489681244,
					0.2705882489681244,
					0.2666666805744171,
					1
				],
				"metallicFactor":0,
				"roughnessFactor":0.5527864098548889
			}
		},
		{
			"doubleSided":true,
			"extensions":{
				"KHR_materials_specular":{
					"specularColorFactor":[
						2.371357614441398,
						2.371357614441398,
						2.371357614441398
					]
				},
				"KHR_materials_ior":{
					"ior":1.4500000476837158
				}
			},
			"name":"Material #29",
			"pbrMetallicRoughness":{
				"baseColorFactor":[
					0.019607843831181526,
					0.019607843831181526,
					0.019607843831181526,
					1
				],
				"metallicRoughnessTexture":{
					"index":0
				},
				"roughnessFactor":0.5527864098548889
			}
		},
		{
			"doubleSided":true,
			"extensions":{
				"KHR_materials_specular":{
					"specularColorFactor":[
						2.371357614441398,
						2.371357614441398,
						2.371357614441398
					]
				},
				"KHR_materials_ior":{
					"ior":1.4500000476837158
				}
			},
			"name":"Material #25.001",
			"pbrMetallicRoughness":{
				"baseColorFactor":[
					0.8588235974311829,
					0.8588235974311829,
					0.8431373238563538,
					1
				],
				"metallicFactor":0,
				"roughnessFactor":0.5527864098548889
			}
		},
		{
			"doubleSided":true,
			"extensions":{
				"KHR_materials_specular":{
					"specularColorFactor":[
						2.371357614441398,
						2.371357614441398,
						2.371357614441398
					]
				},
				"KHR_materials_ior":{
					"ior":1.4500000476837158
				}
			},
			"name":"Material #30",
			"pbrMetallicRoughness":{
				"baseColorFactor":[
					0.7058823704719543,
					0.7058823704719543,
					0.6901960968971252,
					1
				],
				"metallicFactor":0,
				"roughnessFactor":0.5527864098548889
			}
		}
	],
	"meshes":[
		{
			"name":"Mesh.003",
			"primitives":[
				{
					"attributes":{
						"POSITION":0,
						"NORMAL":1
					},
					"indices":2,
					"material":0
				},
				{
					"attributes":{
						"POSITION":3,
						"NORMAL":4
					},
					"indices":5,
					"material":1
				}
			]
		},
		{
			"name":"Mesh.007",
			"primitives":[
				{
					"attributes":{
						"POSITION":6,
						"NORMAL":7
					},
					"indices":2,
					"material":0
				},
				{
					"attributes":{
						"POSITION":8,
						"NORMAL":9
					},
					"indices":5,
					"material":1
				}
			]
		},
		{
			"name":"Mesh.006",
			"primitives":[
				{
					"attributes":{
						"POSITION":10,
						"TEXCOORD_0":11,
						"NORMAL":12
					},
					"indices":13,
					"material":2
				}
			]
		},
		{
			"name":"Mesh.005",
			"primitives":[
				{
					"attributes":{
						"POSITION":14,
						"TEXCOORD_0":15,
						"NORMAL":16
					},
					"indices":17,
					"material":2
				}
			]
		},
		{
			"name":"Mesh.004",
			"primitives":[
				{
					"attributes":{
						"POSITION":18,
						"TEXCOORD_0":19,
						"NORMAL":20
					},
					"indices":21,
					"material":3
				}
			]
		}
	],
	"textures":[
		{
			"sampler":0,
			"source":0
		}
	],
	"images":[
		{
			"bufferView":6,
			"mimeType":"image/png",
			"name":"Image"
		}
	],
	"accessors":[
		{
			"bufferView":0,
			"componentType":5126,
			"count":480,
			"max":[
				0.9066131114959717,
				42.61249923706055,
				2.6632161140441895
			],
			"min":[
				-0.9066041707992554,
				4.916457653045654,
				-1.8497216701507568
			],
			"type":"VEC3"
		},
		{
			"bufferView":1,
			"componentType":5126,
			"count":480,
			"type":"VEC3"
		},
		{
			"bufferView":2,
			"componentType":5123,
			"count":1392,
			"type":"SCALAR"
		},
		{
			"bufferView":3,
			"componentType":5126,
			"count":120,
			"max":[
				0.8053230047225952,
				40.636756896972656,
				1.618923306465149
			],
			"min":[
				-0.8053137063980103,
				6.69024658203125,
				-0.8054288029670715
			],
			"type":"VEC3"
		},
		{
			"bufferView":4,
			"componentType":5126,
			"count":120,
			"type":"VEC3"
		},
		{
			"bufferView":5,
			"componentType":5123,
			"count":348,
			"type":"SCALAR"
		},
		{
			"bufferView":7,
			"componentType":5126,
			"count":480,
			"max":[
				0.9066130518913269,
				42.73704147338867,
				2.6632161140441895
			],
			"min":[
				-0.9066041707992554,
				4.916457653045654,
				-1.8497215509414673
			],
			"type":"VEC3"
		},
		{
			"bufferView":8,
			"componentType":5126,
			"count":480,
			"type":"VEC3"
		},
		{
			"bufferView":9,
			"componentType":5126,
			"count":120,
			"max":[
				0.80532306432724,
				40.76129913330078,
				1.618923306465149
			],
			"min":[
				-0.8053137063980103,
				6.69024658203125,
				-0.8054287433624268
			],
			"type":"VEC3"
		},
		{
			"bufferView":10,
			"componentType":5126,
			"count":120,
			"type":"VEC3"
		},
		{
			"bufferView":11,
			"componentType":5126,
			"count":672,
			"max":[
				-628.7189331054688,
				200.82205200195312,
				35.612064361572266
			],
			"min":[
				-708.7178955078125,
				-1.52587890625e-05,
				-21.387958526611328
			],
			"type":"VEC3"
		},
		{
			"bufferView":12,
			"componentType":5126,
			"count":672,
			"type":"VEC2"
		},
		{
			"bufferView":13,
			"componentType":5126,
			"count":672,
			"type":"VEC3"
		},
		{
			"bufferView":14,
			"componentType":5123,
			"count":924,
			"type":"SCALAR"
		},
		{
			"bufferView":15,
			"componentType":5126,
			"count":384,
			"max":[
				-666.6795654296875,
				170.2171630859375,
				35.61223602294922
			],
			"min":[
				-704.39208984375,
				77.19994354248047,
				-21.38794708251953
			],
			"type":"VEC3"
		},
		{
			"bufferView":16,
			"componentType":5126,
			"count":384,
			"type":"VEC2"
		},
		{
			"bufferView":17,
			"componentType":5126,
			"count":384,
			"type":"VEC3"
		},
		{
			"bufferView":18,
			"componentType":5123,
			"count":528,
			"type":"SCALAR"
		},
		{
			"bufferView":19,
			"componentType":5126,
			"count":96,
			"max":[
				-671.8017578125,
				199.86846923828125,
				-20.6488037109375
			],
			"min":[
				-748.9217529296875,
				3.79998779296875,
				-21.387956619262695
			],
			"type":"VEC3"
		},
		{
			"bufferView":20,
			"componentType":5126,
			"count":96,
			"type":"VEC2"
		},
		{
			"bufferView":21,
			"componentType":5126,
			"count":96,
			"type":"VEC3"
		},
		{
			"bufferView":22,
			"componentType":5123,
			"count":132,
			"type":"SCALAR"
		},
		{
			"bufferView":23,
			"componentType":5126,
			"count":1,
			"max":[
				0.03333333333333333
			],
			"min":[
				0.03333333333333333
			],
			"type":"SCALAR"
		},
		{
			"bufferView":24,
			"componentType":5126,
			"count":1,
			"type":"VEC3"
		},
		{
			"bufferView":25,
			"componentType":5126,
			"count":1,
			"type":"VEC4"
		},
		{
			"bufferView":26,
			"componentType":5126,
			"count":1,
			"type":"VEC3"
		},
		{
			"bufferView":27,
			"componentType":5126,
			"count":1,
			"type":"VEC3"
		},
		{
			"bufferView":28,
			"componentType":5126,
			"count":1,
			"type":"VEC4"
		},
		{
			"bufferView":29,
			"componentType":5126,
			"count":1,
			"type":"VEC3"
		},
		{
			"bufferView":30,
			"componentType":5126,
			"count":1,
			"type":"VEC3"
		},
		{
			"bufferView":31,
			"componentType":5126,
			"count":1,
			"type":"VEC4"
		},
		{
			"bufferView":32,
			"componentType":5126,
			"count":1,
			"type":"VEC3"
		},
		{
			"bufferView":33,
			"componentType":5126,
			"count":1,
			"type":"VEC3"
		},
		{
			"bufferView":34,
			"componentType":5126,
			"count":1,
			"type":"VEC4"
		},
		{
			"bufferView":35,
			"componentType":5126,
			"count":1,
			"type":"VEC3"
		},
		{
			"bufferView":36,
			"componentType":5126,
			"count":1,
			"type":"VEC3"
		},
		{
			"bufferView":37,
			"componentType":5126,
			"count":1,
			"type":"VEC4"
		},
		{
			"bufferView":38,
			"componentType":5126,
			"count":1,
			"type":"VEC3"
		},
		{
			"bufferView":39,
			"componentType":5126,
			"count":1,
			"type":"VEC3"
		},
		{
			"bufferView":40,
			"componentType":5126,
			"count":1,
			"type":"VEC4"
		},
		{
			"bufferView":41,
			"componentType":5126,
			"count":1,
			"type":"VEC3"
		}
	],
	"bufferViews":[
		{
			"buffer":0,
			"byteLength":5760,
			"byteOffset":0,
			"target":34962
		},
		{
			"buffer":0,
			"byteLength":5760,
			"byteOffset":5760,
			"target":34962
		},
		{
			"buffer":0,
			"byteLength":2784,
			"byteOffset":11520,
			"target":34963
		},
		{
			"buffer":0,
			"byteLength":1440,
			"byteOffset":14304,
			"target":34962
		},
		{
			"buffer":0,
			"byteLength":1440,
			"byteOffset":15744,
			"target":34962
		},
		{
			"buffer":0,
			"byteLength":696,
			"byteOffset":17184,
			"target":34963
		},
		{
			"buffer":0,
			"byteLength":90,
			"byteOffset":17880
		},
		{
			"buffer":0,
			"byteLength":5760,
			"byteOffset":17972,
			"target":34962
		},
		{
			"buffer":0,
			"byteLength":5760,
			"byteOffset":23732,
			"target":34962
		},
		{
			"buffer":0,
			"byteLength":1440,
			"byteOffset":29492,
			"target":34962
		},
		{
			"buffer":0,
			"byteLength":1440,
			"byteOffset":30932,
			"target":34962
		},
		{
			"buffer":0,
			"byteLength":8064,
			"byteOffset":32372,
			"target":34962
		},
		{
			"buffer":0,
			"byteLength":5376,
			"byteOffset":40436,
			"target":34962
		},
		{
			"buffer":0,
			"byteLength":8064,
			"byteOffset":45812,
			"target":34962
		},
		{
			"buffer":0,
			"byteLength":1848,
			"byteOffset":53876,
			"target":34963
		},
		{
			"buffer":0,
			"byteLength":4608,
			"byteOffset":55724,
			"target":34962
		},
		{
			"buffer":0,
			"byteLength":3072,
			"byteOffset":60332,
			"target":34962
		},
		{
			"buffer":0,
			"byteLength":4608,
			"byteOffset":63404,
			"target":34962
		},
		{
			"buffer":0,
			"byteLength":1056,
			"byteOffset":68012,
			"target":34963
		},
		{
			"buffer":0,
			"byteLength":1152,
			"byteOffset":69068,
			"target":34962
		},
		{
			"buffer":0,
			"byteLength":768,
			"byteOffset":70220,
			"target":34962
		},
		{
			"buffer":0,
			"byteLength":1152,
			"byteOffset":70988,
			"target":34962
		},
		{
			"buffer":0,
			"byteLength":264,
			"byteOffset":72140,
			"target":34963
		},
		{
			"buffer":0,
			"byteLength":4,
			"byteOffset":72404
		},
		{
			"buffer":0,
			"byteLength":12,
			"byteOffset":72408
		},
		{
			"buffer":0,
			"byteLength":16,
			"byteOffset":72420
		},
		{
			"buffer":0,
			"byteLength":12,
			"byteOffset":72436
		},
		{
			"buffer":0,
			"byteLength":12,
			"byteOffset":72448
		},
		{
			"buffer":0,
			"byteLength":16,
			"byteOffset":72460
		},
		{
			"buffer":0,
			"byteLength":12,
			"byteOffset":72476
		},
		{
			"buffer":0,
			"byteLength":12,
			"byteOffset":72488
		},
		{
			"buffer":0,
			"byteLength":16,
			"byteOffset":72500
		},
		{
			"buffer":0,
			"byteLength":12,
			"byteOffset":72516
		},
		{
			"buffer":0,
			"byteLength":12,
			"byteOffset":72528
		},
		{
			"buffer":0,
			"byteLength":16,
			"byteOffset":72540
		},
		{
			"buffer":0,
			"byteLength":12,
			"byteOffset":72556
		},
		{
			"buffer":0,
			"byteLength":12,
			"byteOffset":72568
		},
		{
			"buffer":0,
			"byteLength":16,
			"byteOffset":72580
		},
		{
			"buffer":0,
			"byteLength":12,
			"byteOffset":72596
		},
		{
			"buffer":0,
			"byteLength":12,
			"byteOffset":72608
		},
		{
			"buffer":0,
			"byteLength":16,
			"byteOffset":72620
		},
		{
			"buffer":0,
			"byteLength":12,
			"byteOffset":72636
		}
	],
	"samplers":[
		{
			"magFilter":9729,
			"minFilter":9987
		}
	],
	"buffers":[
		{
			"byteLength":72648,
			"uri":"data:application/octet-stream;base64,"
		}
	]
}
