{
	"asset":{
		"generator":"Khronos glTF Blender I/O v3.5.30",
		"version":"2.0"
	},
	"extensionsUsed":[
		"KHR_materials_specular",
		"KHR_materials_ior"
	],
	"scene":0,
	"scenes":[
		{
			"name":"Scene",
			"nodes":[
				0
			]
		}
	],
	"nodes":[
		{
			"mesh":0,
			"name":"Korpys041",
			"scale":[
				0.010000000707805157,
				0.010000000707805157,
				0.010000000707805157
			],
			"translation":[
				6.84297513961792,
				0.006249949801713228,
				-0.060291338711977005
			]
		}
	],
	"animations":[
		{
			"channels":[
				{
					"sampler":0,
					"target":{
						"node":0,
						"path":"translation"
					}
				},
				{
					"sampler":1,
					"target":{
						"node":0,
						"path":"rotation"
					}
				},
				{
					"sampler":2,
					"target":{
						"node":0,
						"path":"scale"
					}
				}
			],
			"name":"Korpys041|Take 001|BaseLayer",
			"samplers":[
				{
					"input":16,
					"interpolation":"STEP",
					"output":17
				},
				{
					"input":16,
					"interpolation":"STEP",
					"output":18
				},
				{
					"input":16,
					"interpolation":"STEP",
					"output":19
				}
			]
		}
	],
	"materials":[
		{
			"doubleSided":true,
			"extensions":{
				"KHR_materials_specular":{
					"specularColorFactor":[
						2.371357614441398,
						2.371357614441398,
						2.371357614441398
					]
				},
				"KHR_materials_ior":{
					"ior":1.4500000476837158
				}
			},
			"name":"Material #29",
			"pbrMetallicRoughness":{
				"baseColorFactor":[
					0.8588235974311829,
					0.8588235974311829,
					0.8431373238563538,
					1
				],
				"metallicFactor":0,
				"roughnessFactor":0.5527864098548889
			}
		},
		{
			"doubleSided":true,
			"extensions":{
				"KHR_materials_specular":{
					"specularColorFactor":[
						2.371357614441398,
						2.371357614441398,
						2.371357614441398
					]
				},
				"KHR_materials_ior":{
					"ior":1.4500000476837158
				}
			},
			"name":"Material #30",
			"pbrMetallicRoughness":{
				"baseColorFactor":[
					0.7058823704719543,
					0.7058823704719543,
					0.6901960968971252,
					1
				],
				"metallicFactor":0,
				"roughnessFactor":0.5527864098548889
			}
		},
		{
			"doubleSided":true,
			"extensions":{
				"KHR_materials_specular":{
					"specularColorFactor":[
						2.371357614441398,
						2.371357614441398,
						2.371357614441398
					]
				},
				"KHR_materials_ior":{
					"ior":1.4500000476837158
				}
			},
			"name":"Material #27",
			"pbrMetallicRoughness":{
				"baseColorFactor":[
					0.2705882489681244,
					0.2705882489681244,
					0.2666666805744171,
					1
				],
				"metallicFactor":0,
				"roughnessFactor":0.5527864098548889
			}
		},
		{
			"doubleSided":true,
			"extensions":{
				"KHR_materials_specular":{
					"specularColorFactor":[
						2.371357614441398,
						2.371357614441398,
						2.371357614441398
					]
				},
				"KHR_materials_ior":{
					"ior":1.4500000476837158
				}
			},
			"name":"Material #28",
			"pbrMetallicRoughness":{
				"baseColorFactor":[
					0.5098039507865906,
					0.5098039507865906,
					0.5098039507865906,
					1
				],
				"metallicFactor":0,
				"roughnessFactor":0.5527864098548889
			}
		}
	],
	"meshes":[
		{
			"name":"Mesh",
			"primitives":[
				{
					"attributes":{
						"POSITION":0,
						"TEXCOORD_0":1,
						"NORMAL":2
					},
					"indices":3,
					"material":0
				},
				{
					"attributes":{
						"POSITION":4,
						"TEXCOORD_0":5,
						"NORMAL":6
					},
					"indices":7,
					"material":1
				},
				{
					"attributes":{
						"POSITION":8,
						"TEXCOORD_0":9,
						"NORMAL":10
					},
					"indices":11,
					"material":2
				},
				{
					"attributes":{
						"POSITION":12,
						"TEXCOORD_0":13,
						"NORMAL":14
					},
					"indices":15,
					"material":3
				}
			]
		}
	],
	"accessors":[
		{
			"bufferView":0,
			"componentType":5126,
			"count":864,
			"max":[
				-659.3145141601562,
				200.8271026611328,
				35.612239837646484
			],
			"min":[
				-709.5067749023438,
				-1.52587890625e-05,
				-21.388042449951172
			],
			"type":"VEC3"
		},
		{
			"bufferView":1,
			"componentType":5126,
			"count":864,
			"type":"VEC2"
		},
		{
			"bufferView":2,
			"componentType":5126,
			"count":864,
			"type":"VEC3"
		},
		{
			"bufferView":3,
			"componentType":5123,
			"count":1188,
			"type":"SCALAR"
		},
		{
			"bufferView":4,
			"componentType":5126,
			"count":96,
			"max":[
				-660.0680541992188,
				200.4926300048828,
				-20.64838981628418
			],
			"min":[
				-708.5146484375,
				2.8676929473876953,
				-21.387897491455078
			],
			"type":"VEC3"
		},
		{
			"bufferView":5,
			"componentType":5126,
			"count":96,
			"type":"VEC2"
		},
		{
			"bufferView":6,
			"componentType":5126,
			"count":96,
			"type":"VEC3"
		},
		{
			"bufferView":7,
			"componentType":5123,
			"count":132,
			"type":"SCALAR"
		},
		{
			"bufferView":8,
			"componentType":5126,
			"count":480,
			"max":[
				-660.8089599609375,
				71.05693054199219,
				7.2800445556640625
			],
			"min":[
				-707.9920654296875,
				66.54399108886719,
				5.4668288230896
			],
			"type":"VEC3"
		},
		{
			"bufferView":9,
			"componentType":5126,
			"count":480,
			"type":"VEC2"
		},
		{
			"bufferView":10,
			"componentType":5126,
			"count":480,
			"type":"VEC3"
		},
		{
			"bufferView":11,
			"componentType":5123,
			"count":1392,
			"type":"SCALAR"
		},
		{
			"bufferView":12,
			"componentType":5126,
			"count":120,
			"max":[
				-662.582763671875,
				70.01264190673828,
				7.178752899169922
			],
			"min":[
				-705.4769287109375,
				67.58828735351562,
				5.568121433258057
			],
			"type":"VEC3"
		},
		{
			"bufferView":13,
			"componentType":5126,
			"count":120,
			"type":"VEC2"
		},
		{
			"bufferView":14,
			"componentType":5126,
			"count":120,
			"type":"VEC3"
		},
		{
			"bufferView":15,
			"componentType":5123,
			"count":348,
			"type":"SCALAR"
		},
		{
			"bufferView":16,
			"componentType":5126,
			"count":1,
			"max":[
				0.03333333333333333
			],
			"min":[
				0.03333333333333333
			],
			"type":"SCALAR"
		},
		{
			"bufferView":17,
			"componentType":5126,
			"count":1,
			"type":"VEC3"
		},
		{
			"bufferView":18,
			"componentType":5126,
			"count":1,
			"type":"VEC4"
		},
		{
			"bufferView":19,
			"componentType":5126,
			"count":1,
			"type":"VEC3"
		}
	],
	"bufferViews":[
		{
			"buffer":0,
			"byteLength":10368,
			"byteOffset":0,
			"target":34962
		},
		{
			"buffer":0,
			"byteLength":6912,
			"byteOffset":10368,
			"target":34962
		},
		{
			"buffer":0,
			"byteLength":10368,
			"byteOffset":17280,
			"target":34962
		},
		{
			"buffer":0,
			"byteLength":2376,
			"byteOffset":27648,
			"target":34963
		},
		{
			"buffer":0,
			"byteLength":1152,
			"byteOffset":30024,
			"target":34962
		},
		{
			"buffer":0,
			"byteLength":768,
			"byteOffset":31176,
			"target":34962
		},
		{
			"buffer":0,
			"byteLength":1152,
			"byteOffset":31944,
			"target":34962
		},
		{
			"buffer":0,
			"byteLength":264,
			"byteOffset":33096,
			"target":34963
		},
		{
			"buffer":0,
			"byteLength":5760,
			"byteOffset":33360,
			"target":34962
		},
		{
			"buffer":0,
			"byteLength":3840,
			"byteOffset":39120,
			"target":34962
		},
		{
			"buffer":0,
			"byteLength":5760,
			"byteOffset":42960,
			"target":34962
		},
		{
			"buffer":0,
			"byteLength":2784,
			"byteOffset":48720,
			"target":34963
		},
		{
			"buffer":0,
			"byteLength":1440,
			"byteOffset":51504,
			"target":34962
		},
		{
			"buffer":0,
			"byteLength":960,
			"byteOffset":52944,
			"target":34962
		},
		{
			"buffer":0,
			"byteLength":1440,
			"byteOffset":53904,
			"target":34962
		},
		{
			"buffer":0,
			"byteLength":696,
			"byteOffset":55344,
			"target":34963
		},
		{
			"buffer":0,
			"byteLength":4,
			"byteOffset":56040
		},
		{
			"buffer":0,
			"byteLength":12,
			"byteOffset":56044
		},
		{
			"buffer":0,
			"byteLength":16,
			"byteOffset":56056
		},
		{
			"buffer":0,
			"byteLength":12,
			"byteOffset":56072
		}
	],
	"buffers":[
		{
			"byteLength":56084,
			"uri":"data:application/octet-stream;base64,"
		}
	]
}
