{
	"asset":{
		"generator":"Khronos glTF Blender I/O v3.5.30",
		"version":"2.0"
	},
	"extensionsUsed":[
		"KHR_materials_specular",
		"KHR_materials_ior"
	],
	"scene":0,
	"scenes":[
		{
			"name":"Scene",
			"nodes":[
				0,
				1,
				2,
				3,
				4,
				5,
				6,
				7,
				8
			]
		}
	],
	"nodes":[
		{
			"name":"25",
			"rotation":[
				0.7071068286895752,
				0,
				0,
				0.7071068286895752
			],
			"scale":[
				0.009999999776482582,
				0.009999999776482582,
				0.009999999776482582
			],
			"translation":[
				5.043615818023682,
				1.30275297164917,
				-1.0499259233474731
			]
		},
		{
			"name":"25.Target",
			"scale":[
				0.009999999776482582,
				0.009999999776482582,
				0.009999999776482582
			],
			"translation":[
				5.043617248535156,
				1.30275297164917,
				-4.374572277069092
			]
		},
		{
			"name":"026",
			"rotation":[
				0.7071068286895752,
				0,
				0,
				0.7071068286895752
			],
			"scale":[
				0.009999999776482582,
				0.009999999776482582,
				0.009999999776482582
			],
			"translation":[
				5.043615818023682,
				1.30275297164917,
				-1.0499259233474731
			]
		},
		{
			"name":"026.Target",
			"scale":[
				0.009999999776482582,
				0.009999999776482582,
				0.009999999776482582
			],
			"translation":[
				5.043617248535156,
				1.30275297164917,
				-4.374572277069092
			]
		},
		{
			"name":"027",
			"rotation":[
				0.7071068286895752,
				0,
				0,
				0.7071068286895752
			],
			"scale":[
				0.009999999776482582,
				0.009999999776482582,
				0.009999999776482582
			],
			"translation":[
				0.0055839442647993565,
				1.30275297164917,
				2.8732752799987793
			]
		},
		{
			"name":"027.Target",
			"scale":[
				0.009999999776482582,
				0.009999999776482582,
				0.009999999776482582
			],
			"translation":[
				0.00558516476303339,
				1.30275297164917,
				-0.4513709545135498
			]
		},
		{
			"mesh":0,
			"name":"Korpys042",
			"scale":[
				0.009999999776482582,
				0.009999999776482582,
				0.009999999776482582
			],
			"translation":[
				6.93237829208374,
				0.006250267848372459,
				-0.059906966984272
			]
		},
		{
			"mesh":1,
			"name":"Object6231",
			"rotation":[
				1,
				0,
				0,
				1.9470718370939721e-07
			],
			"scale":[
				-0.009999999776482582,
				-0.009999999776482582,
				-0.009999999776482582
			],
			"translation":[
				-6.857758522033691,
				0.006250243633985519,
				-0.05990707129240036
			]
		},
		{
			"mesh":2,
			"name":"Circle057",
			"rotation":[
				0.4999999403953552,
				-0.49999988079071045,
				0.5000001192092896,
				0.5000001192092896
			],
			"scale":[
				0.009999999776482582,
				0.009999999776482582,
				0.009999999776482582
			],
			"translation":[
				-0.116338811814785,
				1.885282039642334,
				0.0038337979931384325
			]
		}
	],
	"animations":[
		{
			"channels":[
				{
					"sampler":0,
					"target":{
						"node":0,
						"path":"translation"
					}
				},
				{
					"sampler":1,
					"target":{
						"node":0,
						"path":"rotation"
					}
				},
				{
					"sampler":2,
					"target":{
						"node":0,
						"path":"scale"
					}
				}
			],
			"name":"25|Take 001|BaseLayer.001",
			"samplers":[
				{
					"input":14,
					"interpolation":"LINEAR",
					"output":15
				},
				{
					"input":14,
					"interpolation":"LINEAR",
					"output":16
				},
				{
					"input":14,
					"interpolation":"LINEAR",
					"output":17
				}
			]
		},
		{
			"channels":[
				{
					"sampler":0,
					"target":{
						"node":2,
						"path":"translation"
					}
				},
				{
					"sampler":1,
					"target":{
						"node":2,
						"path":"rotation"
					}
				},
				{
					"sampler":2,
					"target":{
						"node":2,
						"path":"scale"
					}
				}
			],
			"name":"026|Take 001|BaseLayer.001",
			"samplers":[
				{
					"input":14,
					"interpolation":"LINEAR",
					"output":18
				},
				{
					"input":14,
					"interpolation":"LINEAR",
					"output":19
				},
				{
					"input":14,
					"interpolation":"LINEAR",
					"output":20
				}
			]
		},
		{
			"channels":[
				{
					"sampler":0,
					"target":{
						"node":4,
						"path":"translation"
					}
				},
				{
					"sampler":1,
					"target":{
						"node":4,
						"path":"rotation"
					}
				},
				{
					"sampler":2,
					"target":{
						"node":4,
						"path":"scale"
					}
				}
			],
			"name":"027|Take 001|BaseLayer.001",
			"samplers":[
				{
					"input":14,
					"interpolation":"LINEAR",
					"output":21
				},
				{
					"input":14,
					"interpolation":"LINEAR",
					"output":22
				},
				{
					"input":14,
					"interpolation":"LINEAR",
					"output":23
				}
			]
		}
	],
	"materials":[
		{
			"doubleSided":true,
			"extensions":{
				"KHR_materials_specular":{
					"specularColorFactor":[
						2.371357614441398,
						2.371357614441398,
						2.371357614441398
					]
				},
				"KHR_materials_ior":{
					"ior":1.4500000476837158
				}
			},
			"name":"Material #2147455593",
			"pbrMetallicRoughness":{
				"baseColorFactor":[
					0.8588235974311829,
					0.8588235974311829,
					0.8431373238563538,
					1
				],
				"metallicFactor":0,
				"roughnessFactor":0.5527864098548889
			}
		},
		{
			"doubleSided":true,
			"extensions":{
				"KHR_materials_specular":{
					"specularColorFactor":[
						2.371357614441398,
						2.371357614441398,
						2.371357614441398
					]
				},
				"KHR_materials_ior":{
					"ior":1.4500000476837158
				}
			},
			"name":"Material #2147455594",
			"pbrMetallicRoughness":{
				"baseColorFactor":[
					0.7058823704719543,
					0.7058823704719543,
					0.6901960968971252,
					1
				],
				"metallicFactor":0,
				"roughnessFactor":0.5527864098548889
			}
		},
		{
			"doubleSided":true,
			"extensions":{
				"KHR_materials_specular":{
					"specularColorFactor":[
						2.371357614441398,
						2.371357614441398,
						2.371357614441398
					]
				},
				"KHR_materials_ior":{
					"ior":1.4500000476837158
				}
			},
			"name":"Material #2147455584",
			"pbrMetallicRoughness":{
				"baseColorFactor":[
					0.2705882489681244,
					0.2705882489681244,
					0.2666666805744171,
					1
				],
				"metallicFactor":0,
				"roughnessFactor":0.5527864098548889
			}
		},
		{
			"doubleSided":true,
			"extensions":{
				"KHR_materials_specular":{
					"specularColorFactor":[
						2.371357614441398,
						2.371357614441398,
						2.371357614441398
					]
				},
				"KHR_materials_ior":{
					"ior":1.4500000476837158
				}
			},
			"name":"Material #2147455583",
			"pbrMetallicRoughness":{
				"baseColorFactor":[
					0.019607843831181526,
					0.019607843831181526,
					0.019607843831181526,
					1
				],
				"metallicRoughnessTexture":{
					"index":0
				},
				"roughnessFactor":0.5527864098548889
			}
		}
	],
	"meshes":[
		{
			"name":"Mesh",
			"primitives":[
				{
					"attributes":{
						"POSITION":0,
						"TEXCOORD_0":1,
						"NORMAL":2
					},
					"indices":3,
					"material":0
				}
			]
		},
		{
			"name":"Mesh.001",
			"primitives":[
				{
					"attributes":{
						"POSITION":4,
						"TEXCOORD_0":5,
						"NORMAL":6
					},
					"indices":7,
					"material":1
				}
			]
		},
		{
			"name":"Mesh.002",
			"primitives":[
				{
					"attributes":{
						"POSITION":8,
						"NORMAL":9
					},
					"indices":10,
					"material":2
				},
				{
					"attributes":{
						"POSITION":11,
						"NORMAL":12
					},
					"indices":13,
					"material":3
				}
			]
		}
	],
	"textures":[
		{
			"sampler":0,
			"source":0
		}
	],
	"images":[
		{
			"bufferView":14,
			"mimeType":"image/png",
			"name":"Image"
		}
	],
	"accessors":[
		{
			"bufferView":0,
			"componentType":5126,
			"count":576,
			"max":[
				-668.2552490234375,
				200.76438903808594,
				35.61280059814453
			],
			"min":[
				-718.4356079101562,
				-7.62939453125e-06,
				-21.387962341308594
			],
			"type":"VEC3"
		},
		{
			"bufferView":1,
			"componentType":5126,
			"count":576,
			"type":"VEC2"
		},
		{
			"bufferView":2,
			"componentType":5126,
			"count":576,
			"type":"VEC3"
		},
		{
			"bufferView":3,
			"componentType":5123,
			"count":792,
			"type":"SCALAR"
		},
		{
			"bufferView":4,
			"componentType":5126,
			"count":96,
			"max":[
				-661.9071044921875,
				199.93618774414062,
				-20.6488037109375
			],
			"min":[
				-710.3536987304688,
				2.86761474609375,
				-21.387956619262695
			],
			"type":"VEC3"
		},
		{
			"bufferView":5,
			"componentType":5126,
			"count":96,
			"type":"VEC2"
		},
		{
			"bufferView":6,
			"componentType":5126,
			"count":96,
			"type":"VEC3"
		},
		{
			"bufferView":7,
			"componentType":5123,
			"count":132,
			"type":"SCALAR"
		},
		{
			"bufferView":8,
			"componentType":5126,
			"count":480,
			"max":[
				0.9066051840782166,
				12.042633056640625,
				2.663222312927246
			],
			"min":[
				-0.9066105484962463,
				-35.120758056640625,
				-1.8497143983840942
			],
			"type":"VEC3"
		},
		{
			"bufferView":9,
			"componentType":5126,
			"count":480,
			"type":"VEC3"
		},
		{
			"bufferView":10,
			"componentType":5123,
			"count":1392,
			"type":"SCALAR"
		},
		{
			"bufferView":11,
			"componentType":5126,
			"count":120,
			"max":[
				0.8053151369094849,
				10.066890716552734,
				1.6189298629760742
			],
			"min":[
				-0.8053200840950012,
				-33.34696960449219,
				-0.8054213523864746
			],
			"type":"VEC3"
		},
		{
			"bufferView":12,
			"componentType":5126,
			"count":120,
			"type":"VEC3"
		},
		{
			"bufferView":13,
			"componentType":5123,
			"count":348,
			"type":"SCALAR"
		},
		{
			"bufferView":15,
			"componentType":5126,
			"count":101,
			"max":[
				3.3666666666666667
			],
			"min":[
				0.03333333333333333
			],
			"type":"SCALAR"
		},
		{
			"bufferView":16,
			"componentType":5126,
			"count":101,
			"type":"VEC3"
		},
		{
			"bufferView":17,
			"componentType":5126,
			"count":101,
			"type":"VEC4"
		},
		{
			"bufferView":18,
			"componentType":5126,
			"count":101,
			"type":"VEC3"
		},
		{
			"bufferView":19,
			"componentType":5126,
			"count":101,
			"type":"VEC3"
		},
		{
			"bufferView":20,
			"componentType":5126,
			"count":101,
			"type":"VEC4"
		},
		{
			"bufferView":21,
			"componentType":5126,
			"count":101,
			"type":"VEC3"
		},
		{
			"bufferView":22,
			"componentType":5126,
			"count":101,
			"type":"VEC3"
		},
		{
			"bufferView":23,
			"componentType":5126,
			"count":101,
			"type":"VEC4"
		},
		{
			"bufferView":24,
			"componentType":5126,
			"count":101,
			"type":"VEC3"
		}
	],
	"bufferViews":[
		{
			"buffer":0,
			"byteLength":6912,
			"byteOffset":0,
			"target":34962
		},
		{
			"buffer":0,
			"byteLength":4608,
			"byteOffset":6912,
			"target":34962
		},
		{
			"buffer":0,
			"byteLength":6912,
			"byteOffset":11520,
			"target":34962
		},
		{
			"buffer":0,
			"byteLength":1584,
			"byteOffset":18432,
			"target":34963
		},
		{
			"buffer":0,
			"byteLength":1152,
			"byteOffset":20016,
			"target":34962
		},
		{
			"buffer":0,
			"byteLength":768,
			"byteOffset":21168,
			"target":34962
		},
		{
			"buffer":0,
			"byteLength":1152,
			"byteOffset":21936,
			"target":34962
		},
		{
			"buffer":0,
			"byteLength":264,
			"byteOffset":23088,
			"target":34963
		},
		{
			"buffer":0,
			"byteLength":5760,
			"byteOffset":23352,
			"target":34962
		},
		{
			"buffer":0,
			"byteLength":5760,
			"byteOffset":29112,
			"target":34962
		},
		{
			"buffer":0,
			"byteLength":2784,
			"byteOffset":34872,
			"target":34963
		},
		{
			"buffer":0,
			"byteLength":1440,
			"byteOffset":37656,
			"target":34962
		},
		{
			"buffer":0,
			"byteLength":1440,
			"byteOffset":39096,
			"target":34962
		},
		{
			"buffer":0,
			"byteLength":696,
			"byteOffset":40536,
			"target":34963
		},
		{
			"buffer":0,
			"byteLength":90,
			"byteOffset":41232
		},
		{
			"buffer":0,
			"byteLength":404,
			"byteOffset":41324
		},
		{
			"buffer":0,
			"byteLength":1212,
			"byteOffset":41728
		},
		{
			"buffer":0,
			"byteLength":1616,
			"byteOffset":42940
		},
		{
			"buffer":0,
			"byteLength":1212,
			"byteOffset":44556
		},
		{
			"buffer":0,
			"byteLength":1212,
			"byteOffset":45768
		},
		{
			"buffer":0,
			"byteLength":1616,
			"byteOffset":46980
		},
		{
			"buffer":0,
			"byteLength":1212,
			"byteOffset":48596
		},
		{
			"buffer":0,
			"byteLength":1212,
			"byteOffset":49808
		},
		{
			"buffer":0,
			"byteLength":1616,
			"byteOffset":51020
		},
		{
			"buffer":0,
			"byteLength":1212,
			"byteOffset":52636
		}
	],
	"samplers":[
		{
			"magFilter":9729,
			"minFilter":9987
		}
	],
	"buffers":[
		{
			"byteLength":53848,
			"uri":"data:application/octet-stream;base64,"
		}
	]
}
