{
	"asset":{
		"generator":"Khronos glTF Blender I/O v3.5.30",
		"version":"2.0"
	},
	"extensionsUsed":[
		"KHR_materials_specular",
		"KHR_materials_ior"
	],
	"scene":0,
	"scenes":[
		{
			"name":"Scene",
			"nodes":[
				0
			]
		}
	],
	"nodes":[
		{
			"mesh":0,
			"name":"Korpys ",
			"scale":[
				0.010000000707805157,
				0.010000000707805157,
				0.010000000707805157
			],
			"translation":[
				6.928586959838867,
				0.006250207312405109,
				-0.06025981530547142
			]
		}
	],
	"animations":[
		{
			"channels":[
				{
					"sampler":0,
					"target":{
						"node":0,
						"path":"translation"
					}
				},
				{
					"sampler":1,
					"target":{
						"node":0,
						"path":"rotation"
					}
				},
				{
					"sampler":2,
					"target":{
						"node":0,
						"path":"scale"
					}
				}
			],
			"name":"Korpys |Take 001|BaseLayer",
			"samplers":[
				{
					"input":16,
					"interpolation":"STEP",
					"output":17
				},
				{
					"input":16,
					"interpolation":"STEP",
					"output":18
				},
				{
					"input":16,
					"interpolation":"STEP",
					"output":19
				}
			]
		}
	],
	"materials":[
		{
			"doubleSided":true,
			"extensions":{
				"KHR_materials_specular":{
					"specularColorFactor":[
						2.371357614441398,
						2.371357614441398,
						2.371357614441398
					]
				},
				"KHR_materials_ior":{
					"ior":1.4500000476837158
				}
			},
			"name":"Material #29",
			"pbrMetallicRoughness":{
				"baseColorFactor":[
					0.8588235974311829,
					0.8588235974311829,
					0.8431373238563538,
					1
				],
				"metallicFactor":0,
				"roughnessFactor":0.5527864098548889
			}
		},
		{
			"doubleSided":true,
			"extensions":{
				"KHR_materials_specular":{
					"specularColorFactor":[
						2.371357614441398,
						2.371357614441398,
						2.371357614441398
					]
				},
				"KHR_materials_ior":{
					"ior":1.4500000476837158
				}
			},
			"name":"Material #30",
			"pbrMetallicRoughness":{
				"baseColorFactor":[
					0.7058823704719543,
					0.7058823704719543,
					0.6901960968971252,
					1
				],
				"metallicFactor":0,
				"roughnessFactor":0.5527864098548889
			}
		},
		{
			"doubleSided":true,
			"extensions":{
				"KHR_materials_specular":{
					"specularColorFactor":[
						1.6023289053007375,
						1.6023289053007375,
						1.6023289053007375
					]
				},
				"KHR_materials_ior":{
					"ior":1.4500000476837158
				}
			},
			"name":"Material #31",
			"pbrMetallicRoughness":{
				"baseColorFactor":[
					0.2705882489681244,
					0.2705882489681244,
					0.2666666805744171,
					1
				],
				"metallicFactor":0,
				"roughnessFactor":0.5527864098548889
			}
		},
		{
			"doubleSided":true,
			"extensions":{
				"KHR_materials_specular":{
					"specularColorFactor":[
						2.371357614441398,
						2.371357614441398,
						2.371357614441398
					]
				},
				"KHR_materials_ior":{
					"ior":1.4500000476837158
				}
			},
			"name":"Material #32",
			"pbrMetallicRoughness":{
				"baseColorFactor":[
					0.5098039507865906,
					0.5098039507865906,
					0.5098039507865906,
					1
				],
				"metallicFactor":0,
				"roughnessFactor":0.5527864098548889
			}
		}
	],
	"meshes":[
		{
			"name":"Mesh",
			"primitives":[
				{
					"attributes":{
						"POSITION":0,
						"TEXCOORD_0":1,
						"NORMAL":2
					},
					"indices":3,
					"material":0
				},
				{
					"attributes":{
						"POSITION":4,
						"TEXCOORD_0":5,
						"NORMAL":6
					},
					"indices":7,
					"material":1
				},
				{
					"attributes":{
						"POSITION":8,
						"TEXCOORD_0":9,
						"NORMAL":10
					},
					"indices":11,
					"material":2
				},
				{
					"attributes":{
						"POSITION":12,
						"TEXCOORD_0":13,
						"NORMAL":14
					},
					"indices":15,
					"material":3
				}
			]
		}
	],
	"accessors":[
		{
			"bufferView":0,
			"componentType":5126,
			"count":576,
			"max":[
				-662.7811889648438,
				200.76438903808594,
				35.6128044128418
			],
			"min":[
				-722.7877807617188,
				-1.52587890625e-05,
				-21.387962341308594
			],
			"type":"VEC3"
		},
		{
			"bufferView":1,
			"componentType":5126,
			"count":576,
			"type":"VEC2"
		},
		{
			"bufferView":2,
			"componentType":5126,
			"count":576,
			"type":"VEC3"
		},
		{
			"bufferView":3,
			"componentType":5123,
			"count":792,
			"type":"SCALAR"
		},
		{
			"bufferView":4,
			"componentType":5126,
			"count":96,
			"max":[
				-664.665283203125,
				199.6963653564453,
				-20.648815155029297
			],
			"min":[
				-721.7589721679688,
				2.867628812789917,
				-21.387950897216797
			],
			"type":"VEC3"
		},
		{
			"bufferView":5,
			"componentType":5126,
			"count":96,
			"type":"VEC2"
		},
		{
			"bufferView":6,
			"componentType":5126,
			"count":96,
			"type":"VEC3"
		},
		{
			"bufferView":7,
			"componentType":5123,
			"count":132,
			"type":"SCALAR"
		},
		{
			"bufferView":8,
			"componentType":5126,
			"count":629,
			"max":[
				-664.2748413085938,
				190.1450653076172,
				7.2768025398254395
			],
			"min":[
				-721.2901000976562,
				185.63211059570312,
				5.463576316833496
			],
			"type":"VEC3"
		},
		{
			"bufferView":9,
			"componentType":5126,
			"count":629,
			"type":"VEC2"
		},
		{
			"bufferView":10,
			"componentType":5126,
			"count":629,
			"type":"VEC3"
		},
		{
			"bufferView":11,
			"componentType":5123,
			"count":1392,
			"type":"SCALAR"
		},
		{
			"bufferView":12,
			"componentType":5126,
			"count":160,
			"max":[
				-666.2505493164062,
				189.10076904296875,
				7.175511837005615
			],
			"min":[
				-719.516357421875,
				186.67640686035156,
				5.564867973327637
			],
			"type":"VEC3"
		},
		{
			"bufferView":13,
			"componentType":5126,
			"count":160,
			"type":"VEC2"
		},
		{
			"bufferView":14,
			"componentType":5126,
			"count":160,
			"type":"VEC3"
		},
		{
			"bufferView":15,
			"componentType":5123,
			"count":348,
			"type":"SCALAR"
		},
		{
			"bufferView":16,
			"componentType":5126,
			"count":1,
			"max":[
				0.03333333333333333
			],
			"min":[
				0.03333333333333333
			],
			"type":"SCALAR"
		},
		{
			"bufferView":17,
			"componentType":5126,
			"count":1,
			"type":"VEC3"
		},
		{
			"bufferView":18,
			"componentType":5126,
			"count":1,
			"type":"VEC4"
		},
		{
			"bufferView":19,
			"componentType":5126,
			"count":1,
			"type":"VEC3"
		}
	],
	"bufferViews":[
		{
			"buffer":0,
			"byteLength":6912,
			"byteOffset":0,
			"target":34962
		},
		{
			"buffer":0,
			"byteLength":4608,
			"byteOffset":6912,
			"target":34962
		},
		{
			"buffer":0,
			"byteLength":6912,
			"byteOffset":11520,
			"target":34962
		},
		{
			"buffer":0,
			"byteLength":1584,
			"byteOffset":18432,
			"target":34963
		},
		{
			"buffer":0,
			"byteLength":1152,
			"byteOffset":20016,
			"target":34962
		},
		{
			"buffer":0,
			"byteLength":768,
			"byteOffset":21168,
			"target":34962
		},
		{
			"buffer":0,
			"byteLength":1152,
			"byteOffset":21936,
			"target":34962
		},
		{
			"buffer":0,
			"byteLength":264,
			"byteOffset":23088,
			"target":34963
		},
		{
			"buffer":0,
			"byteLength":7548,
			"byteOffset":23352,
			"target":34962
		},
		{
			"buffer":0,
			"byteLength":5032,
			"byteOffset":30900,
			"target":34962
		},
		{
			"buffer":0,
			"byteLength":7548,
			"byteOffset":35932,
			"target":34962
		},
		{
			"buffer":0,
			"byteLength":2784,
			"byteOffset":43480,
			"target":34963
		},
		{
			"buffer":0,
			"byteLength":1920,
			"byteOffset":46264,
			"target":34962
		},
		{
			"buffer":0,
			"byteLength":1280,
			"byteOffset":48184,
			"target":34962
		},
		{
			"buffer":0,
			"byteLength":1920,
			"byteOffset":49464,
			"target":34962
		},
		{
			"buffer":0,
			"byteLength":696,
			"byteOffset":51384,
			"target":34963
		},
		{
			"buffer":0,
			"byteLength":4,
			"byteOffset":52080
		},
		{
			"buffer":0,
			"byteLength":12,
			"byteOffset":52084
		},
		{
			"buffer":0,
			"byteLength":16,
			"byteOffset":52096
		},
		{
			"buffer":0,
			"byteLength":12,
			"byteOffset":52112
		}
	],
	"buffers":[
		{
			"byteLength":52124,
			"uri":"data:application/octet-stream;base64,"
		}
	]
}
