{
	"asset":{
		"generator":"Khronos glTF Blender I/O v3.5.30",
		"version":"2.0"
	},
	"extensionsUsed":[
		"KHR_materials_specular",
		"KHR_materials_ior"
	],
	"scene":0,
	"scenes":[
		{
			"name":"Scene",
			"nodes":[
				0,
				1,
				2
			]
		}
	],
	"nodes":[
		{
			"mesh":0,
			"name":"Korpys042",
			"scale":[
				0.009999999776482582,
				0.009999999776482582,
				0.009999999776482582
			],
			"translation":[
				6.440901756286621,
				0.006250267848372459,
				-0.06029362604022026
			]
		},
		{
			"mesh":1,
			"name":"Circle058",
			"rotation":[
				-0.5000000596046448,
				0.49999991059303284,
				0.4999999403953552,
				0.5000000596046448
			],
			"scale":[
				-0.009999999776482582,
				-0.009999999776482582,
				-0.009999999776482582
			],
			"translation":[
				-0.2873317003250122,
				1.8892035484313965,
				0.003441039938479662
			]
		},
		{
			"mesh":2,
			"name":"Object6230",
			"rotation":[
				1,
				0,
				0,
				7.549789415861596e-08
			],
			"scale":[
				-0.009999999776482582,
				-0.009999999776482582,
				-0.009999999776482582
			],
			"translation":[
				-6.857215404510498,
				0.00625019334256649,
				-0.06227339431643486
			]
		}
	],
	"animations":[
		{
			"channels":[
				{
					"sampler":0,
					"target":{
						"node":0,
						"path":"translation"
					}
				},
				{
					"sampler":1,
					"target":{
						"node":0,
						"path":"rotation"
					}
				},
				{
					"sampler":2,
					"target":{
						"node":0,
						"path":"scale"
					}
				}
			],
			"name":"Korpys042|Take 001|BaseLayer",
			"samplers":[
				{
					"input":14,
					"interpolation":"STEP",
					"output":15
				},
				{
					"input":14,
					"interpolation":"STEP",
					"output":16
				},
				{
					"input":14,
					"interpolation":"STEP",
					"output":17
				}
			]
		},
		{
			"channels":[
				{
					"sampler":0,
					"target":{
						"node":1,
						"path":"translation"
					}
				},
				{
					"sampler":1,
					"target":{
						"node":1,
						"path":"rotation"
					}
				},
				{
					"sampler":2,
					"target":{
						"node":1,
						"path":"scale"
					}
				}
			],
			"name":"Circle058|Take 001|BaseLayer",
			"samplers":[
				{
					"input":14,
					"interpolation":"STEP",
					"output":18
				},
				{
					"input":14,
					"interpolation":"STEP",
					"output":19
				},
				{
					"input":14,
					"interpolation":"STEP",
					"output":20
				}
			]
		},
		{
			"channels":[
				{
					"sampler":0,
					"target":{
						"node":2,
						"path":"translation"
					}
				},
				{
					"sampler":1,
					"target":{
						"node":2,
						"path":"rotation"
					}
				},
				{
					"sampler":2,
					"target":{
						"node":2,
						"path":"scale"
					}
				}
			],
			"name":"Object6230|Take 001|BaseLayer",
			"samplers":[
				{
					"input":14,
					"interpolation":"STEP",
					"output":21
				},
				{
					"input":14,
					"interpolation":"STEP",
					"output":22
				},
				{
					"input":14,
					"interpolation":"STEP",
					"output":23
				}
			]
		}
	],
	"materials":[
		{
			"doubleSided":true,
			"extensions":{
				"KHR_materials_specular":{
					"specularColorFactor":[
						2.371357614441398,
						2.371357614441398,
						2.371357614441398
					]
				},
				"KHR_materials_ior":{
					"ior":1.4500000476837158
				}
			},
			"name":"Material #25",
			"pbrMetallicRoughness":{
				"baseColorFactor":[
					0.8588235974311829,
					0.8588235974311829,
					0.8431373238563538,
					1
				],
				"metallicFactor":0,
				"roughnessFactor":0.5527864098548889
			}
		},
		{
			"doubleSided":true,
			"extensions":{
				"KHR_materials_specular":{
					"specularColorFactor":[
						2.371357614441398,
						2.371357614441398,
						2.371357614441398
					]
				},
				"KHR_materials_ior":{
					"ior":1.4500000476837158
				}
			},
			"name":"Material #28",
			"pbrMetallicRoughness":{
				"baseColorFactor":[
					0.2705882489681244,
					0.2705882489681244,
					0.2666666805744171,
					1
				],
				"metallicFactor":0,
				"roughnessFactor":0.5527864098548889
			}
		},
		{
			"doubleSided":true,
			"extensions":{
				"KHR_materials_specular":{
					"specularColorFactor":[
						2.371357614441398,
						2.371357614441398,
						2.371357614441398
					]
				},
				"KHR_materials_ior":{
					"ior":1.4500000476837158
				}
			},
			"name":"Material #29",
			"pbrMetallicRoughness":{
				"baseColorFactor":[
					0.019607843831181526,
					0.019607843831181526,
					0.019607843831181526,
					1
				],
				"metallicRoughnessTexture":{
					"index":0
				},
				"roughnessFactor":0.5527864098548889
			}
		},
		{
			"doubleSided":true,
			"extensions":{
				"KHR_materials_specular":{
					"specularColorFactor":[
						2.371357614441398,
						2.371357614441398,
						2.371357614441398
					]
				},
				"KHR_materials_ior":{
					"ior":1.4500000476837158
				}
			},
			"name":"Material #30",
			"pbrMetallicRoughness":{
				"baseColorFactor":[
					0.7058823704719543,
					0.7058823704719543,
					0.6901960968971252,
					1
				],
				"metallicFactor":0,
				"roughnessFactor":0.5527864098548889
			}
		}
	],
	"meshes":[
		{
			"name":"Mesh",
			"primitives":[
				{
					"attributes":{
						"POSITION":0,
						"TEXCOORD_0":1,
						"NORMAL":2
					},
					"indices":3,
					"material":0
				}
			]
		},
		{
			"name":"Mesh.001",
			"primitives":[
				{
					"attributes":{
						"POSITION":4,
						"NORMAL":5
					},
					"indices":6,
					"material":1
				},
				{
					"attributes":{
						"POSITION":7,
						"NORMAL":8
					},
					"indices":9,
					"material":2
				}
			]
		},
		{
			"name":"Mesh.002",
			"primitives":[
				{
					"attributes":{
						"POSITION":10,
						"TEXCOORD_0":11,
						"NORMAL":12
					},
					"indices":13,
					"material":3
				}
			]
		}
	],
	"textures":[
		{
			"sampler":0,
			"source":0
		}
	],
	"images":[
		{
			"bufferView":10,
			"mimeType":"image/png",
			"name":"Image"
		}
	],
	"accessors":[
		{
			"bufferView":0,
			"componentType":5126,
			"count":1920,
			"max":[
				-614.0135498046875,
				200.8199005126953,
				35.612064361572266
			],
			"min":[
				-674.02001953125,
				-0.0062103271484375,
				-21.387958526611328
			],
			"type":"VEC3"
		},
		{
			"bufferView":1,
			"componentType":5126,
			"count":1920,
			"type":"VEC2"
		},
		{
			"bufferView":2,
			"componentType":5126,
			"count":1920,
			"type":"VEC3"
		},
		{
			"bufferView":3,
			"componentType":5123,
			"count":2640,
			"type":"SCALAR"
		},
		{
			"bufferView":4,
			"componentType":5126,
			"count":480,
			"max":[
				0.9066108465194702,
				57.316978454589844,
				2.6632156372070312
			],
			"min":[
				-0.9066033959388733,
				0.30167722702026367,
				-1.8497204780578613
			],
			"type":"VEC3"
		},
		{
			"bufferView":5,
			"componentType":5126,
			"count":480,
			"type":"VEC3"
		},
		{
			"bufferView":6,
			"componentType":5123,
			"count":1392,
			"type":"SCALAR"
		},
		{
			"bufferView":7,
			"componentType":5126,
			"count":120,
			"max":[
				0.8053207397460938,
				55.34123611450195,
				1.6189231872558594
			],
			"min":[
				-0.805312991142273,
				2.0754661560058594,
				-0.8054276704788208
			],
			"type":"VEC3"
		},
		{
			"bufferView":8,
			"componentType":5126,
			"count":120,
			"type":"VEC3"
		},
		{
			"bufferView":9,
			"componentType":5123,
			"count":348,
			"type":"SCALAR"
		},
		{
			"bufferView":11,
			"componentType":5126,
			"count":96,
			"max":[
				-657.2546997070312,
				199.69635009765625,
				-20.6488037109375
			],
			"min":[
				-714.348388671875,
				2.86761474609375,
				-21.387956619262695
			],
			"type":"VEC3"
		},
		{
			"bufferView":12,
			"componentType":5126,
			"count":96,
			"type":"VEC2"
		},
		{
			"bufferView":13,
			"componentType":5126,
			"count":96,
			"type":"VEC3"
		},
		{
			"bufferView":14,
			"componentType":5123,
			"count":132,
			"type":"SCALAR"
		},
		{
			"bufferView":15,
			"componentType":5126,
			"count":1,
			"max":[
				0.03333333333333333
			],
			"min":[
				0.03333333333333333
			],
			"type":"SCALAR"
		},
		{
			"bufferView":16,
			"componentType":5126,
			"count":1,
			"type":"VEC3"
		},
		{
			"bufferView":17,
			"componentType":5126,
			"count":1,
			"type":"VEC4"
		},
		{
			"bufferView":18,
			"componentType":5126,
			"count":1,
			"type":"VEC3"
		},
		{
			"bufferView":19,
			"componentType":5126,
			"count":1,
			"type":"VEC3"
		},
		{
			"bufferView":20,
			"componentType":5126,
			"count":1,
			"type":"VEC4"
		},
		{
			"bufferView":21,
			"componentType":5126,
			"count":1,
			"type":"VEC3"
		},
		{
			"bufferView":22,
			"componentType":5126,
			"count":1,
			"type":"VEC3"
		},
		{
			"bufferView":23,
			"componentType":5126,
			"count":1,
			"type":"VEC4"
		},
		{
			"bufferView":24,
			"componentType":5126,
			"count":1,
			"type":"VEC3"
		}
	],
	"bufferViews":[
		{
			"buffer":0,
			"byteLength":23040,
			"byteOffset":0,
			"target":34962
		},
		{
			"buffer":0,
			"byteLength":15360,
			"byteOffset":23040,
			"target":34962
		},
		{
			"buffer":0,
			"byteLength":23040,
			"byteOffset":38400,
			"target":34962
		},
		{
			"buffer":0,
			"byteLength":5280,
			"byteOffset":61440,
			"target":34963
		},
		{
			"buffer":0,
			"byteLength":5760,
			"byteOffset":66720,
			"target":34962
		},
		{
			"buffer":0,
			"byteLength":5760,
			"byteOffset":72480,
			"target":34962
		},
		{
			"buffer":0,
			"byteLength":2784,
			"byteOffset":78240,
			"target":34963
		},
		{
			"buffer":0,
			"byteLength":1440,
			"byteOffset":81024,
			"target":34962
		},
		{
			"buffer":0,
			"byteLength":1440,
			"byteOffset":82464,
			"target":34962
		},
		{
			"buffer":0,
			"byteLength":696,
			"byteOffset":83904,
			"target":34963
		},
		{
			"buffer":0,
			"byteLength":90,
			"byteOffset":84600
		},
		{
			"buffer":0,
			"byteLength":1152,
			"byteOffset":84692,
			"target":34962
		},
		{
			"buffer":0,
			"byteLength":768,
			"byteOffset":85844,
			"target":34962
		},
		{
			"buffer":0,
			"byteLength":1152,
			"byteOffset":86612,
			"target":34962
		},
		{
			"buffer":0,
			"byteLength":264,
			"byteOffset":87764,
			"target":34963
		},
		{
			"buffer":0,
			"byteLength":4,
			"byteOffset":88028
		},
		{
			"buffer":0,
			"byteLength":12,
			"byteOffset":88032
		},
		{
			"buffer":0,
			"byteLength":16,
			"byteOffset":88044
		},
		{
			"buffer":0,
			"byteLength":12,
			"byteOffset":88060
		},
		{
			"buffer":0,
			"byteLength":12,
			"byteOffset":88072
		},
		{
			"buffer":0,
			"byteLength":16,
			"byteOffset":88084
		},
		{
			"buffer":0,
			"byteLength":12,
			"byteOffset":88100
		},
		{
			"buffer":0,
			"byteLength":12,
			"byteOffset":88112
		},
		{
			"buffer":0,
			"byteLength":16,
			"byteOffset":88124
		},
		{
			"buffer":0,
			"byteLength":12,
			"byteOffset":88140
		}
	],
	"samplers":[
		{
			"magFilter":9729,
			"minFilter":9987
		}
	],
	"buffers":[
		{
			"byteLength":88152,
			"uri":"data:application/octet-stream;base64,"
		}
	]
}
