{
	"asset":{
		"generator":"Khronos glTF Blender I/O v3.5.30",
		"version":"2.0"
	},
	"extensionsUsed":[
		"KHR_materials_specular",
		"KHR_materials_ior"
	],
	"scene":0,
	"scenes":[
		{
			"name":"Scene",
			"nodes":[
				0,
				1,
				2
			]
		}
	],
	"nodes":[
		{
			"mesh":0,
			"name":"Korpys043",
			"scale":[
				0.009999999776482582,
				0.009999999776482582,
				0.009999999776482582
			],
			"translation":[
				6.440901756286621,
				0.006250267848372459,
				-0.06029362604022026
			]
		},
		{
			"mesh":1,
			"name":"Object6230",
			"rotation":[
				1,
				0,
				0,
				7.549789415861596e-08
			],
			"scale":[
				-0.009999999776482582,
				-0.009999999776482582,
				-0.009999999776482582
			],
			"translation":[
				-7.102962493896484,
				0.00625019334256649,
				-0.06032109260559082
			]
		},
		{
			"mesh":2,
			"name":"Circle058",
			"rotation":[
				0.4999999403953552,
				-0.49999988079071045,
				0.5000001192092896,
				0.5000001192092896
			],
			"scale":[
				0.009999999776482582,
				0.009999999776482582,
				0.009999999776482582
			],
			"translation":[
				-0.361542284488678,
				1.885282278060913,
				0.003420094260945916
			]
		}
	],
	"animations":[
		{
			"channels":[
				{
					"sampler":0,
					"target":{
						"node":0,
						"path":"translation"
					}
				},
				{
					"sampler":1,
					"target":{
						"node":0,
						"path":"rotation"
					}
				},
				{
					"sampler":2,
					"target":{
						"node":0,
						"path":"scale"
					}
				}
			],
			"name":"Korpys043|Take 001|BaseLayer.003",
			"samplers":[
				{
					"input":14,
					"interpolation":"STEP",
					"output":15
				},
				{
					"input":14,
					"interpolation":"STEP",
					"output":16
				},
				{
					"input":14,
					"interpolation":"STEP",
					"output":17
				}
			]
		},
		{
			"channels":[
				{
					"sampler":0,
					"target":{
						"node":1,
						"path":"translation"
					}
				},
				{
					"sampler":1,
					"target":{
						"node":1,
						"path":"rotation"
					}
				},
				{
					"sampler":2,
					"target":{
						"node":1,
						"path":"scale"
					}
				}
			],
			"name":"Object6230|Take 001|BaseLayer.001",
			"samplers":[
				{
					"input":14,
					"interpolation":"STEP",
					"output":18
				},
				{
					"input":14,
					"interpolation":"STEP",
					"output":19
				},
				{
					"input":14,
					"interpolation":"STEP",
					"output":20
				}
			]
		},
		{
			"channels":[
				{
					"sampler":0,
					"target":{
						"node":2,
						"path":"translation"
					}
				},
				{
					"sampler":1,
					"target":{
						"node":2,
						"path":"rotation"
					}
				},
				{
					"sampler":2,
					"target":{
						"node":2,
						"path":"scale"
					}
				}
			],
			"name":"Circle058|Take 001|BaseLayer",
			"samplers":[
				{
					"input":14,
					"interpolation":"STEP",
					"output":21
				},
				{
					"input":14,
					"interpolation":"STEP",
					"output":22
				},
				{
					"input":14,
					"interpolation":"STEP",
					"output":23
				}
			]
		}
	],
	"materials":[
		{
			"doubleSided":true,
			"extensions":{
				"KHR_materials_specular":{
					"specularColorFactor":[
						2.371357614441398,
						2.371357614441398,
						2.371357614441398
					]
				},
				"KHR_materials_ior":{
					"ior":1.4500000476837158
				}
			},
			"name":"Material #25.002",
			"pbrMetallicRoughness":{
				"baseColorFactor":[
					0.8588235974311829,
					0.8588235974311829,
					0.8431373238563538,
					1
				],
				"metallicFactor":0,
				"roughnessFactor":0.5527864098548889
			}
		},
		{
			"doubleSided":true,
			"extensions":{
				"KHR_materials_specular":{
					"specularColorFactor":[
						2.371357614441398,
						2.371357614441398,
						2.371357614441398
					]
				},
				"KHR_materials_ior":{
					"ior":1.4500000476837158
				}
			},
			"name":"Material #26",
			"pbrMetallicRoughness":{
				"baseColorFactor":[
					0.7058823704719543,
					0.7058823704719543,
					0.6901960968971252,
					1
				],
				"metallicFactor":0,
				"roughnessFactor":0.5527864098548889
			}
		},
		{
			"doubleSided":true,
			"extensions":{
				"KHR_materials_specular":{
					"specularColorFactor":[
						2.371357614441398,
						2.371357614441398,
						2.371357614441398
					]
				},
				"KHR_materials_ior":{
					"ior":1.4500000476837158
				}
			},
			"name":"Material #29.001",
			"pbrMetallicRoughness":{
				"baseColorFactor":[
					0.2705882489681244,
					0.2705882489681244,
					0.2666666805744171,
					1
				],
				"metallicFactor":0,
				"roughnessFactor":0.5527864098548889
			}
		},
		{
			"doubleSided":true,
			"extensions":{
				"KHR_materials_specular":{
					"specularColorFactor":[
						2.371357614441398,
						2.371357614441398,
						2.371357614441398
					]
				},
				"KHR_materials_ior":{
					"ior":1.4500000476837158
				}
			},
			"name":"Material #30.001",
			"pbrMetallicRoughness":{
				"baseColorFactor":[
					0.019607843831181526,
					0.019607843831181526,
					0.019607843831181526,
					1
				],
				"metallicRoughnessTexture":{
					"index":0
				},
				"roughnessFactor":0.5527864098548889
			}
		}
	],
	"meshes":[
		{
			"name":"Mesh",
			"primitives":[
				{
					"attributes":{
						"POSITION":0,
						"TEXCOORD_0":1,
						"NORMAL":2
					},
					"indices":3,
					"material":0
				}
			]
		},
		{
			"name":"Mesh.001",
			"primitives":[
				{
					"attributes":{
						"POSITION":4,
						"TEXCOORD_0":5,
						"NORMAL":6
					},
					"indices":7,
					"material":1
				}
			]
		},
		{
			"name":"Mesh.002",
			"primitives":[
				{
					"attributes":{
						"POSITION":8,
						"NORMAL":9
					},
					"indices":10,
					"material":2
				},
				{
					"attributes":{
						"POSITION":11,
						"NORMAL":12
					},
					"indices":13,
					"material":3
				}
			]
		}
	],
	"textures":[
		{
			"sampler":0,
			"source":0
		}
	],
	"images":[
		{
			"bufferView":14,
			"mimeType":"image/png",
			"name":"Image"
		}
	],
	"accessors":[
		{
			"bufferView":0,
			"componentType":5126,
			"count":1920,
			"max":[
				-604.0912475585938,
				200.8199005126953,
				35.612064361572266
			],
			"min":[
				-684.0906372070312,
				-0.0062103271484375,
				-21.387958526611328
			],
			"type":"VEC3"
		},
		{
			"bufferView":1,
			"componentType":5126,
			"count":1920,
			"type":"VEC2"
		},
		{
			"bufferView":2,
			"componentType":5126,
			"count":1920,
			"type":"VEC3"
		},
		{
			"bufferView":3,
			"componentType":5123,
			"count":2640,
			"type":"SCALAR"
		},
		{
			"bufferView":4,
			"componentType":5126,
			"count":96,
			"max":[
				-671.8017578125,
				199.86846923828125,
				-20.6488037109375
			],
			"min":[
				-748.9217529296875,
				3.79998779296875,
				-21.387956619262695
			],
			"type":"VEC3"
		},
		{
			"bufferView":5,
			"componentType":5126,
			"count":96,
			"type":"VEC2"
		},
		{
			"bufferView":6,
			"componentType":5126,
			"count":96,
			"type":"VEC3"
		},
		{
			"bufferView":7,
			"componentType":5123,
			"count":132,
			"type":"SCALAR"
		},
		{
			"bufferView":8,
			"componentType":5126,
			"count":480,
			"max":[
				0.9066036343574524,
				2.3579559326171875,
				2.663233518600464
			],
			"min":[
				-0.9066169857978821,
				-74.7737045288086,
				-1.849711537361145
			],
			"type":"VEC3"
		},
		{
			"bufferView":9,
			"componentType":5126,
			"count":480,
			"type":"VEC3"
		},
		{
			"bufferView":10,
			"componentType":5123,
			"count":1392,
			"type":"SCALAR"
		},
		{
			"bufferView":11,
			"componentType":5126,
			"count":120,
			"max":[
				0.8053135275840759,
				0.38221365213394165,
				1.618941068649292
			],
			"min":[
				-0.805326521396637,
				-72.99991607666016,
				-0.8054186105728149
			],
			"type":"VEC3"
		},
		{
			"bufferView":12,
			"componentType":5126,
			"count":120,
			"type":"VEC3"
		},
		{
			"bufferView":13,
			"componentType":5123,
			"count":348,
			"type":"SCALAR"
		},
		{
			"bufferView":15,
			"componentType":5126,
			"count":1,
			"max":[
				0.03333333333333333
			],
			"min":[
				0.03333333333333333
			],
			"type":"SCALAR"
		},
		{
			"bufferView":16,
			"componentType":5126,
			"count":1,
			"type":"VEC3"
		},
		{
			"bufferView":17,
			"componentType":5126,
			"count":1,
			"type":"VEC4"
		},
		{
			"bufferView":18,
			"componentType":5126,
			"count":1,
			"type":"VEC3"
		},
		{
			"bufferView":19,
			"componentType":5126,
			"count":1,
			"type":"VEC3"
		},
		{
			"bufferView":20,
			"componentType":5126,
			"count":1,
			"type":"VEC4"
		},
		{
			"bufferView":21,
			"componentType":5126,
			"count":1,
			"type":"VEC3"
		},
		{
			"bufferView":22,
			"componentType":5126,
			"count":1,
			"type":"VEC3"
		},
		{
			"bufferView":23,
			"componentType":5126,
			"count":1,
			"type":"VEC4"
		},
		{
			"bufferView":24,
			"componentType":5126,
			"count":1,
			"type":"VEC3"
		}
	],
	"bufferViews":[
		{
			"buffer":0,
			"byteLength":23040,
			"byteOffset":0,
			"target":34962
		},
		{
			"buffer":0,
			"byteLength":15360,
			"byteOffset":23040,
			"target":34962
		},
		{
			"buffer":0,
			"byteLength":23040,
			"byteOffset":38400,
			"target":34962
		},
		{
			"buffer":0,
			"byteLength":5280,
			"byteOffset":61440,
			"target":34963
		},
		{
			"buffer":0,
			"byteLength":1152,
			"byteOffset":66720,
			"target":34962
		},
		{
			"buffer":0,
			"byteLength":768,
			"byteOffset":67872,
			"target":34962
		},
		{
			"buffer":0,
			"byteLength":1152,
			"byteOffset":68640,
			"target":34962
		},
		{
			"buffer":0,
			"byteLength":264,
			"byteOffset":69792,
			"target":34963
		},
		{
			"buffer":0,
			"byteLength":5760,
			"byteOffset":70056,
			"target":34962
		},
		{
			"buffer":0,
			"byteLength":5760,
			"byteOffset":75816,
			"target":34962
		},
		{
			"buffer":0,
			"byteLength":2784,
			"byteOffset":81576,
			"target":34963
		},
		{
			"buffer":0,
			"byteLength":1440,
			"byteOffset":84360,
			"target":34962
		},
		{
			"buffer":0,
			"byteLength":1440,
			"byteOffset":85800,
			"target":34962
		},
		{
			"buffer":0,
			"byteLength":696,
			"byteOffset":87240,
			"target":34963
		},
		{
			"buffer":0,
			"byteLength":90,
			"byteOffset":87936
		},
		{
			"buffer":0,
			"byteLength":4,
			"byteOffset":88028
		},
		{
			"buffer":0,
			"byteLength":12,
			"byteOffset":88032
		},
		{
			"buffer":0,
			"byteLength":16,
			"byteOffset":88044
		},
		{
			"buffer":0,
			"byteLength":12,
			"byteOffset":88060
		},
		{
			"buffer":0,
			"byteLength":12,
			"byteOffset":88072
		},
		{
			"buffer":0,
			"byteLength":16,
			"byteOffset":88084
		},
		{
			"buffer":0,
			"byteLength":12,
			"byteOffset":88100
		},
		{
			"buffer":0,
			"byteLength":12,
			"byteOffset":88112
		},
		{
			"buffer":0,
			"byteLength":16,
			"byteOffset":88124
		},
		{
			"buffer":0,
			"byteLength":12,
			"byteOffset":88140
		}
	],
	"samplers":[
		{
			"magFilter":9729,
			"minFilter":9987
		}
	],
	"buffers":[
		{
			"byteLength":88152,
			"uri":"data:application/octet-stream;base64,"
		}
	]
}
