{
	"asset":{
		"generator":"Khronos glTF Blender I/O v3.5.30",
		"version":"2.0"
	},
	"extensionsUsed":[
		"KHR_materials_specular",
		"KHR_materials_ior"
	],
	"scene":0,
	"scenes":[
		{
			"name":"Scene",
			"nodes":[
				4
			]
		}
	],
	"nodes":[
		{
			"mesh":0,
			"name":"Circle056",
			"rotation":[
				-0.5,
				0.5,
				0.5,
				0.5000000596046448
			],
			"scale":[
				-1,
				-1,
				-1
			],
			"translation":[
				-4.10494327545166,
				87.49214172363281,
				-0.7391689419746399
			]
		},
		{
			"mesh":1,
			"name":"Circle060",
			"rotation":[
				-0.5,
				0.5,
				0.5,
				0.5000000596046448
			],
			"scale":[
				-1,
				-1,
				-1
			],
			"translation":[
				-43.39545822143555,
				-31.201499938964844,
				-0.7391688227653503
			]
		},
		{
			"mesh":2,
			"name":"Korpys041",
			"translation":[
				668.7183227539062,
				-100.41101837158203,
				-7.112640857696533
			]
		},
		{
			"mesh":3,
			"name":"Object6230",
			"rotation":[
				1,
				0,
				0,
				7.549790126404332e-08
			],
			"scale":[
				-1,
				-1,
				-1
			],
			"translation":[
				-710.29541015625,
				-100.4110336303711,
				-7.112683296203613
			]
		},
		{
			"children":[
				0,
				1,
				2,
				3
			],
			"name":"Group001",
			"scale":[
				0.009999999776482582,
				0.009999999776482582,
				0.009999999776482582
			],
			"translation":[
				-8.850097401591484e-06,
				1.010360598564148,
				0.010805683210492134
			]
		}
	],
	"animations":[
		{
			"channels":[
				{
					"sampler":0,
					"target":{
						"node":4,
						"path":"translation"
					}
				},
				{
					"sampler":1,
					"target":{
						"node":4,
						"path":"rotation"
					}
				},
				{
					"sampler":2,
					"target":{
						"node":4,
						"path":"scale"
					}
				}
			],
			"name":"Group001|Take 001|BaseLayer.001",
			"samplers":[
				{
					"input":18,
					"interpolation":"STEP",
					"output":19
				},
				{
					"input":18,
					"interpolation":"STEP",
					"output":20
				},
				{
					"input":18,
					"interpolation":"STEP",
					"output":21
				}
			]
		},
		{
			"channels":[
				{
					"sampler":0,
					"target":{
						"node":0,
						"path":"translation"
					}
				},
				{
					"sampler":1,
					"target":{
						"node":0,
						"path":"rotation"
					}
				},
				{
					"sampler":2,
					"target":{
						"node":0,
						"path":"scale"
					}
				}
			],
			"name":"Circle056|Take 001|BaseLayer.001",
			"samplers":[
				{
					"input":18,
					"interpolation":"STEP",
					"output":22
				},
				{
					"input":18,
					"interpolation":"STEP",
					"output":23
				},
				{
					"input":18,
					"interpolation":"STEP",
					"output":24
				}
			]
		},
		{
			"channels":[
				{
					"sampler":0,
					"target":{
						"node":1,
						"path":"translation"
					}
				},
				{
					"sampler":1,
					"target":{
						"node":1,
						"path":"rotation"
					}
				},
				{
					"sampler":2,
					"target":{
						"node":1,
						"path":"scale"
					}
				}
			],
			"name":"Circle060|Take 001|BaseLayer.001",
			"samplers":[
				{
					"input":18,
					"interpolation":"STEP",
					"output":25
				},
				{
					"input":18,
					"interpolation":"STEP",
					"output":26
				},
				{
					"input":18,
					"interpolation":"STEP",
					"output":27
				}
			]
		},
		{
			"channels":[
				{
					"sampler":0,
					"target":{
						"node":2,
						"path":"translation"
					}
				},
				{
					"sampler":1,
					"target":{
						"node":2,
						"path":"rotation"
					}
				},
				{
					"sampler":2,
					"target":{
						"node":2,
						"path":"scale"
					}
				}
			],
			"name":"Korpys041|Take 001|BaseLayer.001",
			"samplers":[
				{
					"input":18,
					"interpolation":"STEP",
					"output":28
				},
				{
					"input":18,
					"interpolation":"STEP",
					"output":29
				},
				{
					"input":18,
					"interpolation":"STEP",
					"output":30
				}
			]
		},
		{
			"channels":[
				{
					"sampler":0,
					"target":{
						"node":3,
						"path":"translation"
					}
				},
				{
					"sampler":1,
					"target":{
						"node":3,
						"path":"rotation"
					}
				},
				{
					"sampler":2,
					"target":{
						"node":3,
						"path":"scale"
					}
				}
			],
			"name":"Object6230|Take 001|BaseLayer.001",
			"samplers":[
				{
					"input":18,
					"interpolation":"STEP",
					"output":31
				},
				{
					"input":18,
					"interpolation":"STEP",
					"output":32
				},
				{
					"input":18,
					"interpolation":"STEP",
					"output":33
				}
			]
		}
	],
	"materials":[
		{
			"doubleSided":true,
			"extensions":{
				"KHR_materials_specular":{
					"specularColorFactor":[
						2.371357614441398,
						2.371357614441398,
						2.371357614441398
					]
				},
				"KHR_materials_ior":{
					"ior":1.4500000476837158
				}
			},
			"name":"Material #28.001",
			"pbrMetallicRoughness":{
				"baseColorFactor":[
					0.2705882489681244,
					0.2705882489681244,
					0.2666666805744171,
					1
				],
				"metallicFactor":0,
				"roughnessFactor":0.5527864098548889
			}
		},
		{
			"doubleSided":true,
			"extensions":{
				"KHR_materials_specular":{
					"specularColorFactor":[
						2.371357614441398,
						2.371357614441398,
						2.371357614441398
					]
				},
				"KHR_materials_ior":{
					"ior":1.4500000476837158
				}
			},
			"name":"Material #29.001",
			"pbrMetallicRoughness":{
				"baseColorFactor":[
					0.019607843831181526,
					0.019607843831181526,
					0.019607843831181526,
					1
				],
				"metallicRoughnessTexture":{
					"index":0
				},
				"roughnessFactor":0.5527864098548889
			}
		},
		{
			"doubleSided":true,
			"extensions":{
				"KHR_materials_specular":{
					"specularColorFactor":[
						2.371357614441398,
						2.371357614441398,
						2.371357614441398
					]
				},
				"KHR_materials_ior":{
					"ior":1.4500000476837158
				}
			},
			"name":"Material #30.001",
			"pbrMetallicRoughness":{
				"baseColorFactor":[
					0.8588235974311829,
					0.8588235974311829,
					0.8431373238563538,
					1
				],
				"metallicFactor":0,
				"roughnessFactor":0.5527864098548889
			}
		},
		{
			"doubleSided":true,
			"extensions":{
				"KHR_materials_specular":{
					"specularColorFactor":[
						2.371357614441398,
						2.371357614441398,
						2.371357614441398
					]
				},
				"KHR_materials_ior":{
					"ior":1.4500000476837158
				}
			},
			"name":"Material #25.002",
			"pbrMetallicRoughness":{
				"baseColorFactor":[
					0.7058823704719543,
					0.7058823704719543,
					0.6901960968971252,
					1
				],
				"metallicFactor":0,
				"roughnessFactor":0.5527864098548889
			}
		}
	],
	"meshes":[
		{
			"name":"Mesh.001",
			"primitives":[
				{
					"attributes":{
						"POSITION":0,
						"NORMAL":1
					},
					"indices":2,
					"material":0
				},
				{
					"attributes":{
						"POSITION":3,
						"NORMAL":4
					},
					"indices":5,
					"material":1
				}
			]
		},
		{
			"name":"Mesh.008",
			"primitives":[
				{
					"attributes":{
						"POSITION":6,
						"NORMAL":7
					},
					"indices":2,
					"material":0
				},
				{
					"attributes":{
						"POSITION":8,
						"NORMAL":9
					},
					"indices":5,
					"material":1
				}
			]
		},
		{
			"name":"Mesh.002",
			"primitives":[
				{
					"attributes":{
						"POSITION":10,
						"TEXCOORD_0":11,
						"NORMAL":12
					},
					"indices":13,
					"material":2
				}
			]
		},
		{
			"name":"Mesh",
			"primitives":[
				{
					"attributes":{
						"POSITION":14,
						"TEXCOORD_0":15,
						"NORMAL":16
					},
					"indices":17,
					"material":3
				}
			]
		}
	],
	"textures":[
		{
			"sampler":0,
			"source":0
		}
	],
	"images":[
		{
			"bufferView":6,
			"mimeType":"image/png",
			"name":"Image"
		}
	],
	"accessors":[
		{
			"bufferView":0,
			"componentType":5126,
			"count":480,
			"max":[
				0.9066131114959717,
				42.61249923706055,
				2.6632161140441895
			],
			"min":[
				-0.9066041707992554,
				4.916457653045654,
				-1.8497216701507568
			],
			"type":"VEC3"
		},
		{
			"bufferView":1,
			"componentType":5126,
			"count":480,
			"type":"VEC3"
		},
		{
			"bufferView":2,
			"componentType":5123,
			"count":1392,
			"type":"SCALAR"
		},
		{
			"bufferView":3,
			"componentType":5126,
			"count":120,
			"max":[
				0.8053230047225952,
				40.636756896972656,
				1.618923306465149
			],
			"min":[
				-0.8053137063980103,
				6.69024658203125,
				-0.8054288029670715
			],
			"type":"VEC3"
		},
		{
			"bufferView":4,
			"componentType":5126,
			"count":120,
			"type":"VEC3"
		},
		{
			"bufferView":5,
			"componentType":5123,
			"count":348,
			"type":"SCALAR"
		},
		{
			"bufferView":7,
			"componentType":5126,
			"count":480,
			"max":[
				0.9066131114959717,
				42.723907470703125,
				2.6632161140441895
			],
			"min":[
				-0.9066041707992554,
				4.916457653045654,
				-1.8497215509414673
			],
			"type":"VEC3"
		},
		{
			"bufferView":8,
			"componentType":5126,
			"count":480,
			"type":"VEC3"
		},
		{
			"bufferView":9,
			"componentType":5126,
			"count":120,
			"max":[
				0.8053229451179504,
				40.748165130615234,
				1.618923306465149
			],
			"min":[
				-0.8053137063980103,
				6.69024658203125,
				-0.8054287433624268
			],
			"type":"VEC3"
		},
		{
			"bufferView":10,
			"componentType":5126,
			"count":120,
			"type":"VEC3"
		},
		{
			"bufferView":11,
			"componentType":5126,
			"count":2016,
			"max":[
				-628.7189331054688,
				200.82205200195312,
				35.6133918762207
			],
			"min":[
				-708.7178955078125,
				-1.52587890625e-05,
				-21.387958526611328
			],
			"type":"VEC3"
		},
		{
			"bufferView":12,
			"componentType":5126,
			"count":2016,
			"type":"VEC2"
		},
		{
			"bufferView":13,
			"componentType":5126,
			"count":2016,
			"type":"VEC3"
		},
		{
			"bufferView":14,
			"componentType":5123,
			"count":2772,
			"type":"SCALAR"
		},
		{
			"bufferView":15,
			"componentType":5126,
			"count":96,
			"max":[
				-671.8017578125,
				199.86846923828125,
				-20.6488037109375
			],
			"min":[
				-748.9217529296875,
				3.79998779296875,
				-21.387956619262695
			],
			"type":"VEC3"
		},
		{
			"bufferView":16,
			"componentType":5126,
			"count":96,
			"type":"VEC2"
		},
		{
			"bufferView":17,
			"componentType":5126,
			"count":96,
			"type":"VEC3"
		},
		{
			"bufferView":18,
			"componentType":5123,
			"count":132,
			"type":"SCALAR"
		},
		{
			"bufferView":19,
			"componentType":5126,
			"count":1,
			"max":[
				0.03333333333333333
			],
			"min":[
				0.03333333333333333
			],
			"type":"SCALAR"
		},
		{
			"bufferView":20,
			"componentType":5126,
			"count":1,
			"type":"VEC3"
		},
		{
			"bufferView":21,
			"componentType":5126,
			"count":1,
			"type":"VEC4"
		},
		{
			"bufferView":22,
			"componentType":5126,
			"count":1,
			"type":"VEC3"
		},
		{
			"bufferView":23,
			"componentType":5126,
			"count":1,
			"type":"VEC3"
		},
		{
			"bufferView":24,
			"componentType":5126,
			"count":1,
			"type":"VEC4"
		},
		{
			"bufferView":25,
			"componentType":5126,
			"count":1,
			"type":"VEC3"
		},
		{
			"bufferView":26,
			"componentType":5126,
			"count":1,
			"type":"VEC3"
		},
		{
			"bufferView":27,
			"componentType":5126,
			"count":1,
			"type":"VEC4"
		},
		{
			"bufferView":28,
			"componentType":5126,
			"count":1,
			"type":"VEC3"
		},
		{
			"bufferView":29,
			"componentType":5126,
			"count":1,
			"type":"VEC3"
		},
		{
			"bufferView":30,
			"componentType":5126,
			"count":1,
			"type":"VEC4"
		},
		{
			"bufferView":31,
			"componentType":5126,
			"count":1,
			"type":"VEC3"
		},
		{
			"bufferView":32,
			"componentType":5126,
			"count":1,
			"type":"VEC3"
		},
		{
			"bufferView":33,
			"componentType":5126,
			"count":1,
			"type":"VEC4"
		},
		{
			"bufferView":34,
			"componentType":5126,
			"count":1,
			"type":"VEC3"
		}
	],
	"bufferViews":[
		{
			"buffer":0,
			"byteLength":5760,
			"byteOffset":0,
			"target":34962
		},
		{
			"buffer":0,
			"byteLength":5760,
			"byteOffset":5760,
			"target":34962
		},
		{
			"buffer":0,
			"byteLength":2784,
			"byteOffset":11520,
			"target":34963
		},
		{
			"buffer":0,
			"byteLength":1440,
			"byteOffset":14304,
			"target":34962
		},
		{
			"buffer":0,
			"byteLength":1440,
			"byteOffset":15744,
			"target":34962
		},
		{
			"buffer":0,
			"byteLength":696,
			"byteOffset":17184,
			"target":34963
		},
		{
			"buffer":0,
			"byteLength":90,
			"byteOffset":17880
		},
		{
			"buffer":0,
			"byteLength":5760,
			"byteOffset":17972,
			"target":34962
		},
		{
			"buffer":0,
			"byteLength":5760,
			"byteOffset":23732,
			"target":34962
		},
		{
			"buffer":0,
			"byteLength":1440,
			"byteOffset":29492,
			"target":34962
		},
		{
			"buffer":0,
			"byteLength":1440,
			"byteOffset":30932,
			"target":34962
		},
		{
			"buffer":0,
			"byteLength":24192,
			"byteOffset":32372,
			"target":34962
		},
		{
			"buffer":0,
			"byteLength":16128,
			"byteOffset":56564,
			"target":34962
		},
		{
			"buffer":0,
			"byteLength":24192,
			"byteOffset":72692,
			"target":34962
		},
		{
			"buffer":0,
			"byteLength":5544,
			"byteOffset":96884,
			"target":34963
		},
		{
			"buffer":0,
			"byteLength":1152,
			"byteOffset":102428,
			"target":34962
		},
		{
			"buffer":0,
			"byteLength":768,
			"byteOffset":103580,
			"target":34962
		},
		{
			"buffer":0,
			"byteLength":1152,
			"byteOffset":104348,
			"target":34962
		},
		{
			"buffer":0,
			"byteLength":264,
			"byteOffset":105500,
			"target":34963
		},
		{
			"buffer":0,
			"byteLength":4,
			"byteOffset":105764
		},
		{
			"buffer":0,
			"byteLength":12,
			"byteOffset":105768
		},
		{
			"buffer":0,
			"byteLength":16,
			"byteOffset":105780
		},
		{
			"buffer":0,
			"byteLength":12,
			"byteOffset":105796
		},
		{
			"buffer":0,
			"byteLength":12,
			"byteOffset":105808
		},
		{
			"buffer":0,
			"byteLength":16,
			"byteOffset":105820
		},
		{
			"buffer":0,
			"byteLength":12,
			"byteOffset":105836
		},
		{
			"buffer":0,
			"byteLength":12,
			"byteOffset":105848
		},
		{
			"buffer":0,
			"byteLength":16,
			"byteOffset":105860
		},
		{
			"buffer":0,
			"byteLength":12,
			"byteOffset":105876
		},
		{
			"buffer":0,
			"byteLength":12,
			"byteOffset":105888
		},
		{
			"buffer":0,
			"byteLength":16,
			"byteOffset":105900
		},
		{
			"buffer":0,
			"byteLength":12,
			"byteOffset":105916
		},
		{
			"buffer":0,
			"byteLength":12,
			"byteOffset":105928
		},
		{
			"buffer":0,
			"byteLength":16,
			"byteOffset":105940
		},
		{
			"buffer":0,
			"byteLength":12,
			"byteOffset":105956
		}
	],
	"samplers":[
		{
			"magFilter":9729,
			"minFilter":9987
		}
	],
	"buffers":[
		{
			"byteLength":105968,
			"uri":"data:application/octet-stream;base64,"
		}
	]
}
