{
	"asset":{
		"generator":"Khronos glTF Blender I/O v3.5.30",
		"version":"2.0"
	},
	"extensionsUsed":[
		"KHR_materials_specular",
		"KHR_materials_ior"
	],
	"scene":0,
	"scenes":[
		{
			"name":"Scene",
			"nodes":[
				0,
				1,
				2,
				3
			]
		}
	],
	"nodes":[
		{
			"mesh":0,
			"name":"Object6230",
			"rotation":[
				1,
				0,
				0,
				7.549789415861596e-08
			],
			"scale":[
				-0.009999999776482582,
				-0.009999999776482582,
				-0.009999999776482582
			],
			"translation":[
				-7.1029534339904785,
				0.004888651426881552,
				-0.0711267739534378
			]
		},
		{
			"mesh":1,
			"name":"Korpys041",
			"scale":[
				0.009999999776482582,
				0.009999999776482582,
				0.009999999776482582
			],
			"translation":[
				6.687175273895264,
				0.006250267848372459,
				-0.060320671647787094
			]
		},
		{
			"mesh":2,
			"name":"Circle056",
			"rotation":[
				-0.5000000596046448,
				0.5,
				0.4999999403953552,
				0.5
			],
			"scale":[
				-0.009999999776482582,
				-0.009999999776482582,
				-0.009999999776482582
			],
			"translation":[
				-0.04105828329920769,
				1.8852819204330444,
				0.0034139971248805523
			]
		},
		{
			"mesh":3,
			"name":"Circle060",
			"rotation":[
				-0.5000000596046448,
				0.5,
				0.4999999403953552,
				0.5
			],
			"scale":[
				-0.009999999776482582,
				-0.009999999776482582,
				-0.009999999776482582
			],
			"translation":[
				-0.4840109050273895,
				0.6983137130737305,
				0.003413945436477661
			]
		}
	],
	"animations":[
		{
			"channels":[
				{
					"sampler":0,
					"target":{
						"node":0,
						"path":"translation"
					}
				},
				{
					"sampler":1,
					"target":{
						"node":0,
						"path":"rotation"
					}
				},
				{
					"sampler":2,
					"target":{
						"node":0,
						"path":"scale"
					}
				}
			],
			"name":"Object6230|Take 001|BaseLayer.005",
			"samplers":[
				{
					"input":18,
					"interpolation":"STEP",
					"output":19
				},
				{
					"input":18,
					"interpolation":"STEP",
					"output":20
				},
				{
					"input":18,
					"interpolation":"STEP",
					"output":21
				}
			]
		},
		{
			"channels":[
				{
					"sampler":0,
					"target":{
						"node":1,
						"path":"translation"
					}
				},
				{
					"sampler":1,
					"target":{
						"node":1,
						"path":"rotation"
					}
				},
				{
					"sampler":2,
					"target":{
						"node":1,
						"path":"scale"
					}
				}
			],
			"name":"Korpys041|Take 001|BaseLayer.004",
			"samplers":[
				{
					"input":18,
					"interpolation":"STEP",
					"output":22
				},
				{
					"input":18,
					"interpolation":"STEP",
					"output":23
				},
				{
					"input":18,
					"interpolation":"STEP",
					"output":24
				}
			]
		},
		{
			"channels":[
				{
					"sampler":0,
					"target":{
						"node":2,
						"path":"translation"
					}
				},
				{
					"sampler":1,
					"target":{
						"node":2,
						"path":"rotation"
					}
				},
				{
					"sampler":2,
					"target":{
						"node":2,
						"path":"scale"
					}
				}
			],
			"name":"Circle056|Take 001|BaseLayer.004",
			"samplers":[
				{
					"input":18,
					"interpolation":"STEP",
					"output":25
				},
				{
					"input":18,
					"interpolation":"STEP",
					"output":26
				},
				{
					"input":18,
					"interpolation":"STEP",
					"output":27
				}
			]
		},
		{
			"channels":[
				{
					"sampler":0,
					"target":{
						"node":3,
						"path":"translation"
					}
				},
				{
					"sampler":1,
					"target":{
						"node":3,
						"path":"rotation"
					}
				},
				{
					"sampler":2,
					"target":{
						"node":3,
						"path":"scale"
					}
				}
			],
			"name":"Circle060|Take 001|BaseLayer.002",
			"samplers":[
				{
					"input":18,
					"interpolation":"STEP",
					"output":28
				},
				{
					"input":18,
					"interpolation":"STEP",
					"output":29
				},
				{
					"input":18,
					"interpolation":"STEP",
					"output":30
				}
			]
		}
	],
	"materials":[
		{
			"doubleSided":true,
			"extensions":{
				"KHR_materials_specular":{
					"specularColorFactor":[
						2.371357614441398,
						2.371357614441398,
						2.371357614441398
					]
				},
				"KHR_materials_ior":{
					"ior":1.4500000476837158
				}
			},
			"name":"Material #25.001",
			"pbrMetallicRoughness":{
				"baseColorFactor":[
					0.7058823704719543,
					0.7058823704719543,
					0.6901960968971252,
					1
				],
				"metallicFactor":0,
				"roughnessFactor":0.5527864098548889
			}
		},
		{
			"doubleSided":true,
			"extensions":{
				"KHR_materials_specular":{
					"specularColorFactor":[
						2.371357614441398,
						2.371357614441398,
						2.371357614441398
					]
				},
				"KHR_materials_ior":{
					"ior":1.4500000476837158
				}
			},
			"name":"Material #26.002",
			"pbrMetallicRoughness":{
				"baseColorFactor":[
					0.8588235974311829,
					0.8588235974311829,
					0.8431373238563538,
					1
				],
				"metallicFactor":0,
				"roughnessFactor":0.5527864098548889
			}
		},
		{
			"doubleSided":true,
			"extensions":{
				"KHR_materials_specular":{
					"specularColorFactor":[
						2.371357614441398,
						2.371357614441398,
						2.371357614441398
					]
				},
				"KHR_materials_ior":{
					"ior":1.4500000476837158
				}
			},
			"name":"Material #29.001",
			"pbrMetallicRoughness":{
				"baseColorFactor":[
					0.2705882489681244,
					0.2705882489681244,
					0.2666666805744171,
					1
				],
				"metallicFactor":0,
				"roughnessFactor":0.5527864098548889
			}
		},
		{
			"doubleSided":true,
			"extensions":{
				"KHR_materials_specular":{
					"specularColorFactor":[
						2.371357614441398,
						2.371357614441398,
						2.371357614441398
					]
				},
				"KHR_materials_ior":{
					"ior":1.4500000476837158
				}
			},
			"name":"Material #30.001",
			"pbrMetallicRoughness":{
				"baseColorFactor":[
					0.019607843831181526,
					0.019607843831181526,
					0.019607843831181526,
					1
				],
				"metallicRoughnessTexture":{
					"index":0
				},
				"roughnessFactor":0.5527864098548889
			}
		}
	],
	"meshes":[
		{
			"name":"Mesh.008",
			"primitives":[
				{
					"attributes":{
						"POSITION":0,
						"TEXCOORD_0":1,
						"NORMAL":2
					},
					"indices":3,
					"material":0
				}
			]
		},
		{
			"name":"Mesh.009",
			"primitives":[
				{
					"attributes":{
						"POSITION":4,
						"TEXCOORD_0":5,
						"NORMAL":6
					},
					"indices":7,
					"material":1
				}
			]
		},
		{
			"name":"Mesh.010",
			"primitives":[
				{
					"attributes":{
						"POSITION":8,
						"NORMAL":9
					},
					"indices":10,
					"material":2
				},
				{
					"attributes":{
						"POSITION":11,
						"NORMAL":12
					},
					"indices":13,
					"material":3
				}
			]
		},
		{
			"name":"Mesh.011",
			"primitives":[
				{
					"attributes":{
						"POSITION":14,
						"NORMAL":15
					},
					"indices":10,
					"material":2
				},
				{
					"attributes":{
						"POSITION":16,
						"NORMAL":17
					},
					"indices":13,
					"material":3
				}
			]
		}
	],
	"textures":[
		{
			"sampler":0,
			"source":0
		}
	],
	"images":[
		{
			"bufferView":14,
			"mimeType":"image/png",
			"name":"Image"
		}
	],
	"accessors":[
		{
			"bufferView":0,
			"componentType":5126,
			"count":96,
			"max":[
				-666.89697265625,
				199.86846923828125,
				-20.6488037109375
			],
			"min":[
				-753.6970825195312,
				3.79998779296875,
				-21.38796043395996
			],
			"type":"VEC3"
		},
		{
			"bufferView":1,
			"componentType":5126,
			"count":96,
			"type":"VEC2"
		},
		{
			"bufferView":2,
			"componentType":5126,
			"count":96,
			"type":"VEC3"
		},
		{
			"bufferView":3,
			"componentType":5123,
			"count":132,
			"type":"SCALAR"
		},
		{
			"bufferView":4,
			"componentType":5126,
			"count":2016,
			"max":[
				-623.722900390625,
				200.82205200195312,
				35.61338806152344
			],
			"min":[
				-713.719970703125,
				-2.288818359375e-05,
				-21.387958526611328
			],
			"type":"VEC3"
		},
		{
			"bufferView":5,
			"componentType":5126,
			"count":2016,
			"type":"VEC2"
		},
		{
			"bufferView":6,
			"componentType":5126,
			"count":2016,
			"type":"VEC3"
		},
		{
			"bufferView":7,
			"componentType":5123,
			"count":2772,
			"type":"SCALAR"
		},
		{
			"bufferView":8,
			"componentType":5126,
			"count":480,
			"max":[
				0.9066120982170105,
				47.60508728027344,
				2.6632161140441895
			],
			"min":[
				-0.9066041707992554,
				4.916457653045654,
				-1.8497209548950195
			],
			"type":"VEC3"
		},
		{
			"bufferView":9,
			"componentType":5126,
			"count":480,
			"type":"VEC3"
		},
		{
			"bufferView":10,
			"componentType":5123,
			"count":1392,
			"type":"SCALAR"
		},
		{
			"bufferView":11,
			"componentType":5126,
			"count":120,
			"max":[
				0.8053221106529236,
				45.62934494018555,
				1.618923306465149
			],
			"min":[
				-0.8053137063980103,
				6.69024658203125,
				-0.8054279088973999
			],
			"type":"VEC3"
		},
		{
			"bufferView":12,
			"componentType":5126,
			"count":120,
			"type":"VEC3"
		},
		{
			"bufferView":13,
			"componentType":5123,
			"count":348,
			"type":"SCALAR"
		},
		{
			"bufferView":15,
			"componentType":5126,
			"count":480,
			"max":[
				0.9066121578216553,
				47.71516799926758,
				2.6632161140441895
			],
			"min":[
				-0.9066041707992554,
				4.916457653045654,
				-1.8497207164764404
			],
			"type":"VEC3"
		},
		{
			"bufferView":16,
			"componentType":5126,
			"count":480,
			"type":"VEC3"
		},
		{
			"bufferView":17,
			"componentType":5126,
			"count":120,
			"max":[
				0.8053221702575684,
				45.73942565917969,
				1.618923306465149
			],
			"min":[
				-0.8053137063980103,
				6.69024658203125,
				-0.8054279088973999
			],
			"type":"VEC3"
		},
		{
			"bufferView":18,
			"componentType":5126,
			"count":120,
			"type":"VEC3"
		},
		{
			"bufferView":19,
			"componentType":5126,
			"count":1,
			"max":[
				0.03333333333333333
			],
			"min":[
				0.03333333333333333
			],
			"type":"SCALAR"
		},
		{
			"bufferView":20,
			"componentType":5126,
			"count":1,
			"type":"VEC3"
		},
		{
			"bufferView":21,
			"componentType":5126,
			"count":1,
			"type":"VEC4"
		},
		{
			"bufferView":22,
			"componentType":5126,
			"count":1,
			"type":"VEC3"
		},
		{
			"bufferView":23,
			"componentType":5126,
			"count":1,
			"type":"VEC3"
		},
		{
			"bufferView":24,
			"componentType":5126,
			"count":1,
			"type":"VEC4"
		},
		{
			"bufferView":25,
			"componentType":5126,
			"count":1,
			"type":"VEC3"
		},
		{
			"bufferView":26,
			"componentType":5126,
			"count":1,
			"type":"VEC3"
		},
		{
			"bufferView":27,
			"componentType":5126,
			"count":1,
			"type":"VEC4"
		},
		{
			"bufferView":28,
			"componentType":5126,
			"count":1,
			"type":"VEC3"
		},
		{
			"bufferView":29,
			"componentType":5126,
			"count":1,
			"type":"VEC3"
		},
		{
			"bufferView":30,
			"componentType":5126,
			"count":1,
			"type":"VEC4"
		},
		{
			"bufferView":31,
			"componentType":5126,
			"count":1,
			"type":"VEC3"
		}
	],
	"bufferViews":[
		{
			"buffer":0,
			"byteLength":1152,
			"byteOffset":0,
			"target":34962
		},
		{
			"buffer":0,
			"byteLength":768,
			"byteOffset":1152,
			"target":34962
		},
		{
			"buffer":0,
			"byteLength":1152,
			"byteOffset":1920,
			"target":34962
		},
		{
			"buffer":0,
			"byteLength":264,
			"byteOffset":3072,
			"target":34963
		},
		{
			"buffer":0,
			"byteLength":24192,
			"byteOffset":3336,
			"target":34962
		},
		{
			"buffer":0,
			"byteLength":16128,
			"byteOffset":27528,
			"target":34962
		},
		{
			"buffer":0,
			"byteLength":24192,
			"byteOffset":43656,
			"target":34962
		},
		{
			"buffer":0,
			"byteLength":5544,
			"byteOffset":67848,
			"target":34963
		},
		{
			"buffer":0,
			"byteLength":5760,
			"byteOffset":73392,
			"target":34962
		},
		{
			"buffer":0,
			"byteLength":5760,
			"byteOffset":79152,
			"target":34962
		},
		{
			"buffer":0,
			"byteLength":2784,
			"byteOffset":84912,
			"target":34963
		},
		{
			"buffer":0,
			"byteLength":1440,
			"byteOffset":87696,
			"target":34962
		},
		{
			"buffer":0,
			"byteLength":1440,
			"byteOffset":89136,
			"target":34962
		},
		{
			"buffer":0,
			"byteLength":696,
			"byteOffset":90576,
			"target":34963
		},
		{
			"buffer":0,
			"byteLength":90,
			"byteOffset":91272
		},
		{
			"buffer":0,
			"byteLength":5760,
			"byteOffset":91364,
			"target":34962
		},
		{
			"buffer":0,
			"byteLength":5760,
			"byteOffset":97124,
			"target":34962
		},
		{
			"buffer":0,
			"byteLength":1440,
			"byteOffset":102884,
			"target":34962
		},
		{
			"buffer":0,
			"byteLength":1440,
			"byteOffset":104324,
			"target":34962
		},
		{
			"buffer":0,
			"byteLength":4,
			"byteOffset":105764
		},
		{
			"buffer":0,
			"byteLength":12,
			"byteOffset":105768
		},
		{
			"buffer":0,
			"byteLength":16,
			"byteOffset":105780
		},
		{
			"buffer":0,
			"byteLength":12,
			"byteOffset":105796
		},
		{
			"buffer":0,
			"byteLength":12,
			"byteOffset":105808
		},
		{
			"buffer":0,
			"byteLength":16,
			"byteOffset":105820
		},
		{
			"buffer":0,
			"byteLength":12,
			"byteOffset":105836
		},
		{
			"buffer":0,
			"byteLength":12,
			"byteOffset":105848
		},
		{
			"buffer":0,
			"byteLength":16,
			"byteOffset":105860
		},
		{
			"buffer":0,
			"byteLength":12,
			"byteOffset":105876
		},
		{
			"buffer":0,
			"byteLength":12,
			"byteOffset":105888
		},
		{
			"buffer":0,
			"byteLength":16,
			"byteOffset":105900
		},
		{
			"buffer":0,
			"byteLength":12,
			"byteOffset":105916
		}
	],
	"samplers":[
		{
			"magFilter":9729,
			"minFilter":9987
		}
	],
	"buffers":[
		{
			"byteLength":105928,
			"uri":"data:application/octet-stream;base64,"
		}
	]
}
