{
	"asset":{
		"generator":"Khronos glTF Blender I/O v3.5.30",
		"version":"2.0"
	},
	"extensionsUsed":[
		"KHR_materials_specular",
		"KHR_materials_ior"
	],
	"scene":0,
	"scenes":[
		{
			"name":"Scene",
			"nodes":[
				0,
				1,
				2
			]
		}
	],
	"nodes":[
		{
			"mesh":0,
			"name":"Korpys041",
			"rotation":[
				1,
				0,
				0,
				3.1391647326017846e-07
			],
			"scale":[
				-0.009999999776482582,
				-0.009999999776482582,
				-0.009999999776482582
			],
			"translation":[
				-6.687192916870117,
				0.006250257138162851,
				-0.060320477932691574
			]
		},
		{
			"mesh":1,
			"name":"Object6230",
			"scale":[
				0.009999999776482582,
				0.009999999776482582,
				0.009999999776482582
			],
			"translation":[
				7.102944850921631,
				0.006250262260437012,
				-0.0603206567466259
			]
		},
		{
			"mesh":2,
			"name":"Circle058",
			"rotation":[
				0.4999999403953552,
				-0.49999988079071045,
				0.5000001192092896,
				0.5000001192092896
			],
			"scale":[
				0.009999999776482582,
				0.009999999776482582,
				0.009999999776482582
			],
			"translation":[
				-0.361542284488678,
				1.885282278060913,
				0.003420094260945916
			]
		}
	],
	"animations":[
		{
			"channels":[
				{
					"sampler":0,
					"target":{
						"node":0,
						"path":"translation"
					}
				},
				{
					"sampler":1,
					"target":{
						"node":0,
						"path":"rotation"
					}
				},
				{
					"sampler":2,
					"target":{
						"node":0,
						"path":"scale"
					}
				}
			],
			"name":"Korpys041|Take 001|BaseLayer.005",
			"samplers":[
				{
					"input":14,
					"interpolation":"STEP",
					"output":15
				},
				{
					"input":14,
					"interpolation":"STEP",
					"output":16
				},
				{
					"input":14,
					"interpolation":"STEP",
					"output":17
				}
			]
		},
		{
			"channels":[
				{
					"sampler":0,
					"target":{
						"node":1,
						"path":"translation"
					}
				},
				{
					"sampler":1,
					"target":{
						"node":1,
						"path":"rotation"
					}
				},
				{
					"sampler":2,
					"target":{
						"node":1,
						"path":"scale"
					}
				}
			],
			"name":"Object6230|Take 001|BaseLayer.006",
			"samplers":[
				{
					"input":14,
					"interpolation":"STEP",
					"output":18
				},
				{
					"input":14,
					"interpolation":"STEP",
					"output":19
				},
				{
					"input":14,
					"interpolation":"STEP",
					"output":20
				}
			]
		},
		{
			"channels":[
				{
					"sampler":0,
					"target":{
						"node":2,
						"path":"translation"
					}
				},
				{
					"sampler":1,
					"target":{
						"node":2,
						"path":"rotation"
					}
				},
				{
					"sampler":2,
					"target":{
						"node":2,
						"path":"scale"
					}
				}
			],
			"name":"Circle058|Take 001|BaseLayer.003",
			"samplers":[
				{
					"input":14,
					"interpolation":"STEP",
					"output":21
				},
				{
					"input":14,
					"interpolation":"STEP",
					"output":22
				},
				{
					"input":14,
					"interpolation":"STEP",
					"output":23
				}
			]
		}
	],
	"materials":[
		{
			"doubleSided":true,
			"extensions":{
				"KHR_materials_specular":{
					"specularColorFactor":[
						2.371357614441398,
						2.371357614441398,
						2.371357614441398
					]
				},
				"KHR_materials_ior":{
					"ior":1.4500000476837158
				}
			},
			"name":"Material #25.003",
			"pbrMetallicRoughness":{
				"baseColorFactor":[
					0.8588235974311829,
					0.8588235974311829,
					0.8431373238563538,
					1
				],
				"metallicFactor":0,
				"roughnessFactor":0.5527864098548889
			}
		},
		{
			"doubleSided":true,
			"extensions":{
				"KHR_materials_specular":{
					"specularColorFactor":[
						2.371357614441398,
						2.371357614441398,
						2.371357614441398
					]
				},
				"KHR_materials_ior":{
					"ior":1.4500000476837158
				}
			},
			"name":"Material #26.003",
			"pbrMetallicRoughness":{
				"baseColorFactor":[
					0.7058823704719543,
					0.7058823704719543,
					0.6901960968971252,
					1
				],
				"metallicFactor":0,
				"roughnessFactor":0.5527864098548889
			}
		},
		{
			"doubleSided":true,
			"extensions":{
				"KHR_materials_specular":{
					"specularColorFactor":[
						2.371357614441398,
						2.371357614441398,
						2.371357614441398
					]
				},
				"KHR_materials_ior":{
					"ior":1.4500000476837158
				}
			},
			"name":"Material #29.003",
			"pbrMetallicRoughness":{
				"baseColorFactor":[
					0.2705882489681244,
					0.2705882489681244,
					0.2666666805744171,
					1
				],
				"metallicFactor":0,
				"roughnessFactor":0.5527864098548889
			}
		},
		{
			"doubleSided":true,
			"extensions":{
				"KHR_materials_specular":{
					"specularColorFactor":[
						2.371357614441398,
						2.371357614441398,
						2.371357614441398
					]
				},
				"KHR_materials_ior":{
					"ior":1.4500000476837158
				}
			},
			"name":"Material #30.003",
			"pbrMetallicRoughness":{
				"baseColorFactor":[
					0.019607843831181526,
					0.019607843831181526,
					0.019607843831181526,
					1
				],
				"metallicRoughnessTexture":{
					"index":0
				},
				"roughnessFactor":0.5527864098548889
			}
		}
	],
	"meshes":[
		{
			"name":"Mesh",
			"primitives":[
				{
					"attributes":{
						"POSITION":0,
						"TEXCOORD_0":1,
						"NORMAL":2
					},
					"indices":3,
					"material":0
				}
			]
		},
		{
			"name":"Mesh.001",
			"primitives":[
				{
					"attributes":{
						"POSITION":4,
						"TEXCOORD_0":5,
						"NORMAL":6
					},
					"indices":7,
					"material":1
				}
			]
		},
		{
			"name":"Mesh.002",
			"primitives":[
				{
					"attributes":{
						"POSITION":8,
						"NORMAL":9
					},
					"indices":10,
					"material":2
				},
				{
					"attributes":{
						"POSITION":11,
						"NORMAL":12
					},
					"indices":13,
					"material":3
				}
			]
		}
	],
	"textures":[
		{
			"sampler":0,
			"source":0
		}
	],
	"images":[
		{
			"bufferView":14,
			"mimeType":"image/png",
			"name":"Image"
		}
	],
	"accessors":[
		{
			"bufferView":0,
			"componentType":5126,
			"count":576,
			"max":[
				-623.6697998046875,
				200.82205200195312,
				35.61280059814453
			],
			"min":[
				-713.701416015625,
				-1.52587890625e-05,
				-21.387962341308594
			],
			"type":"VEC3"
		},
		{
			"bufferView":1,
			"componentType":5126,
			"count":576,
			"type":"VEC2"
		},
		{
			"bufferView":2,
			"componentType":5126,
			"count":576,
			"type":"VEC3"
		},
		{
			"bufferView":3,
			"componentType":5123,
			"count":792,
			"type":"SCALAR"
		},
		{
			"bufferView":4,
			"componentType":5126,
			"count":96,
			"max":[
				-666.57470703125,
				199.86846923828125,
				-20.6488037109375
			],
			"min":[
				-753.83349609375,
				3.79998779296875,
				-21.387958526611328
			],
			"type":"VEC3"
		},
		{
			"bufferView":5,
			"componentType":5126,
			"count":96,
			"type":"VEC2"
		},
		{
			"bufferView":6,
			"componentType":5126,
			"count":96,
			"type":"VEC3"
		},
		{
			"bufferView":7,
			"componentType":5123,
			"count":132,
			"type":"SCALAR"
		},
		{
			"bufferView":8,
			"componentType":5126,
			"count":480,
			"max":[
				0.9066044688224792,
				7.396580219268799,
				2.6632349491119385
			],
			"min":[
				-0.9066178202629089,
				-79.62348937988281,
				-1.8497129678726196
			],
			"type":"VEC3"
		},
		{
			"bufferView":9,
			"componentType":5126,
			"count":480,
			"type":"VEC3"
		},
		{
			"bufferView":10,
			"componentType":5123,
			"count":1392,
			"type":"SCALAR"
		},
		{
			"bufferView":11,
			"componentType":5126,
			"count":120,
			"max":[
				0.8053144216537476,
				5.42083740234375,
				1.6189424991607666
			],
			"min":[
				-0.8053272366523743,
				-77.84970092773438,
				-0.8054200410842896
			],
			"type":"VEC3"
		},
		{
			"bufferView":12,
			"componentType":5126,
			"count":120,
			"type":"VEC3"
		},
		{
			"bufferView":13,
			"componentType":5123,
			"count":348,
			"type":"SCALAR"
		},
		{
			"bufferView":15,
			"componentType":5126,
			"count":1,
			"max":[
				0.03333333333333333
			],
			"min":[
				0.03333333333333333
			],
			"type":"SCALAR"
		},
		{
			"bufferView":16,
			"componentType":5126,
			"count":1,
			"type":"VEC3"
		},
		{
			"bufferView":17,
			"componentType":5126,
			"count":1,
			"type":"VEC4"
		},
		{
			"bufferView":18,
			"componentType":5126,
			"count":1,
			"type":"VEC3"
		},
		{
			"bufferView":19,
			"componentType":5126,
			"count":1,
			"type":"VEC3"
		},
		{
			"bufferView":20,
			"componentType":5126,
			"count":1,
			"type":"VEC4"
		},
		{
			"bufferView":21,
			"componentType":5126,
			"count":1,
			"type":"VEC3"
		},
		{
			"bufferView":22,
			"componentType":5126,
			"count":1,
			"type":"VEC3"
		},
		{
			"bufferView":23,
			"componentType":5126,
			"count":1,
			"type":"VEC4"
		},
		{
			"bufferView":24,
			"componentType":5126,
			"count":1,
			"type":"VEC3"
		}
	],
	"bufferViews":[
		{
			"buffer":0,
			"byteLength":6912,
			"byteOffset":0,
			"target":34962
		},
		{
			"buffer":0,
			"byteLength":4608,
			"byteOffset":6912,
			"target":34962
		},
		{
			"buffer":0,
			"byteLength":6912,
			"byteOffset":11520,
			"target":34962
		},
		{
			"buffer":0,
			"byteLength":1584,
			"byteOffset":18432,
			"target":34963
		},
		{
			"buffer":0,
			"byteLength":1152,
			"byteOffset":20016,
			"target":34962
		},
		{
			"buffer":0,
			"byteLength":768,
			"byteOffset":21168,
			"target":34962
		},
		{
			"buffer":0,
			"byteLength":1152,
			"byteOffset":21936,
			"target":34962
		},
		{
			"buffer":0,
			"byteLength":264,
			"byteOffset":23088,
			"target":34963
		},
		{
			"buffer":0,
			"byteLength":5760,
			"byteOffset":23352,
			"target":34962
		},
		{
			"buffer":0,
			"byteLength":5760,
			"byteOffset":29112,
			"target":34962
		},
		{
			"buffer":0,
			"byteLength":2784,
			"byteOffset":34872,
			"target":34963
		},
		{
			"buffer":0,
			"byteLength":1440,
			"byteOffset":37656,
			"target":34962
		},
		{
			"buffer":0,
			"byteLength":1440,
			"byteOffset":39096,
			"target":34962
		},
		{
			"buffer":0,
			"byteLength":696,
			"byteOffset":40536,
			"target":34963
		},
		{
			"buffer":0,
			"byteLength":90,
			"byteOffset":41232
		},
		{
			"buffer":0,
			"byteLength":4,
			"byteOffset":41324
		},
		{
			"buffer":0,
			"byteLength":12,
			"byteOffset":41328
		},
		{
			"buffer":0,
			"byteLength":16,
			"byteOffset":41340
		},
		{
			"buffer":0,
			"byteLength":12,
			"byteOffset":41356
		},
		{
			"buffer":0,
			"byteLength":12,
			"byteOffset":41368
		},
		{
			"buffer":0,
			"byteLength":16,
			"byteOffset":41380
		},
		{
			"buffer":0,
			"byteLength":12,
			"byteOffset":41396
		},
		{
			"buffer":0,
			"byteLength":12,
			"byteOffset":41408
		},
		{
			"buffer":0,
			"byteLength":16,
			"byteOffset":41420
		},
		{
			"buffer":0,
			"byteLength":12,
			"byteOffset":41436
		}
	],
	"samplers":[
		{
			"magFilter":9729,
			"minFilter":9987
		}
	],
	"buffers":[
		{
			"byteLength":41448,
			"uri":"data:application/octet-stream;base64,"
		}
	]
}
