{
	"asset":{
		"generator":"Khronos glTF Blender I/O v3.5.30",
		"version":"2.0"
	},
	"extensionsUsed":[
		"KHR_materials_specular",
		"KHR_materials_ior"
	],
	"scene":0,
	"scenes":[
		{
			"name":"Scene",
			"nodes":[
				0,
				1,
				2,
				3,
				4,
				5,
				6
			]
		}
	],
	"nodes":[
		{
			"name":"VRayLight244",
			"scale":[
				0.009999999776482582,
				0.009999999776482582,
				0.009999999776482582
			],
			"translation":[
				0.24801528453826904,
				0.5253828167915344,
				0.286988765001297
			]
		},
		{
			"name":"VRayLight243",
			"scale":[
				0.009999999776482582,
				0.009999999776482582,
				0.009999999776482582
			],
			"translation":[
				0.24801433086395264,
				0.7770476341247559,
				0.286988765001297
			]
		},
		{
			"mesh":0,
			"name":"Object6230",
			"rotation":[
				1,
				0,
				0,
				1.9470718370939721e-07
			],
			"scale":[
				-0.009999999776482582,
				-0.009999999776482582,
				-0.009999999776482582
			],
			"translation":[
				-7.101312160491943,
				0.006250243633985519,
				0.21827319264411926
			]
		},
		{
			"mesh":1,
			"name":"Korpys041",
			"scale":[
				0.009999999776482582,
				0.009999999776482582,
				0.009999999776482582
			],
			"translation":[
				6.688826084136963,
				0.006250267848372459,
				0.21827319264411926
			]
		},
		{
			"mesh":2,
			"name":"Circle057",
			"rotation":[
				0.4999999403953552,
				-0.49999988079071045,
				0.5000001192092896,
				0.5000001192092896
			],
			"scale":[
				0.009999999776482582,
				0.009999999776482582,
				0.009999999776482582
			],
			"translation":[
				-0.35989248752593994,
				1.885282278060913,
				0.2820141613483429
			]
		},
		{
			"mesh":3,
			"name":"Circle056",
			"rotation":[
				-0.5000001192092896,
				0.5,
				0.49999991059303284,
				0.5000000596046448
			],
			"scale":[
				-0.009999999776482582,
				-0.009999999776482582,
				-0.009999999776482582
			],
			"translation":[
				-0.039408326148986816,
				1.885282039642334,
				0.28200796246528625
			]
		},
		{
			"name":"25.Target",
			"scale":[
				0.009999999776482582,
				0.009999999776482582,
				0.009999999776482582
			],
			"translation":[
				0.0016568899154663086,
				1.30275297164917,
				-0.17319056391716003
			]
		}
	],
	"materials":[
		{
			"doubleSided":true,
			"extensions":{
				"KHR_materials_specular":{
					"specularColorFactor":[
						2.371357614441398,
						2.371357614441398,
						2.371357614441398
					]
				},
				"KHR_materials_ior":{
					"ior":1.4500000476837158
				}
			},
			"name":"Material #2147455584.001",
			"pbrMetallicRoughness":{
				"baseColorFactor":[
					0.2705882489681244,
					0.2705882489681244,
					0.2666666805744171,
					1
				],
				"metallicFactor":0,
				"roughnessFactor":0.5527864098548889
			}
		},
		{
			"doubleSided":true,
			"extensions":{
				"KHR_materials_specular":{
					"specularColorFactor":[
						2.371357614441398,
						2.371357614441398,
						2.371357614441398
					]
				},
				"KHR_materials_ior":{
					"ior":1.4500000476837158
				}
			},
			"name":"CORPUS_White",
			"pbrMetallicRoughness":{
				"baseColorFactor":[
					0.8588235974311829,
					0.8588235974311829,
					0.8431373238563538,
					1
				],
				"metallicFactor":0,
				"roughnessFactor":0.5527864098548889
			}
		},
		{
			"doubleSided":true,
			"extensions":{
				"KHR_materials_specular":{
					"specularColorFactor":[
						2.371357614441398,
						2.371357614441398,
						2.371357614441398
					]
				},
				"KHR_materials_ior":{
					"ior":1.4500000476837158
				}
			},
			"name":"Material #2147455584",
			"pbrMetallicRoughness":{
				"baseColorFactor":[
					0.2705882489681244,
					0.2705882489681244,
					0.2666666805744171,
					1
				],
				"metallicFactor":0,
				"roughnessFactor":0.5527864098548889
			}
		},
		{
			"doubleSided":true,
			"extensions":{
				"KHR_materials_specular":{
					"specularColorFactor":[
						2.371357614441398,
						2.371357614441398,
						2.371357614441398
					]
				},
				"KHR_materials_ior":{
					"ior":1.4500000476837158
				}
			},
			"name":"Material #2147455583",
			"pbrMetallicRoughness":{
				"baseColorFactor":[
					0.019607843831181526,
					0.019607843831181526,
					0.019607843831181526,
					1
				],
				"metallicRoughnessTexture":{
					"index":1
				},
				"roughnessFactor":0.5527864098548889
			}
		},
{
    "pbrMetallicRoughness" : {
      "baseColorTexture" : {
        "index" : 2
      },
      "metallicFactor" : 0.0,
      "roughnessFactor" : 1.0
    }
  }		
	],
	
	
	"meshes":[
	
		{
			"name":"Mesh.020",
			"primitives":[
				{
					"attributes":{
						"POSITION":0,
						"TEXCOORD_0":1,
						"NORMAL":2
					},
					"indices":3,
					"material": 4
				}
			]
		},
		{
			"name":"Mesh.019",
			"primitives":[
				{
					"attributes":{
						"POSITION":4,
						"TEXCOORD_0":5,
						"NORMAL":6
					},
					"indices":7,
					"material": 4
				}
			]
		},
		{
			"name":"Mesh.022",
			"primitives":[
				{
					"attributes":{
						"POSITION":8,
						"NORMAL":9
					},
					"indices":10,
					"material":0
				},
				{
					"attributes":{
						"POSITION":11,
						"NORMAL":12
					},
					"indices":13,
					"material":3
				}
			]
		},
		{
			"name":"Mesh.021",
			"primitives":[
				{
					"attributes":{
						"POSITION":14,
						"NORMAL":15
					},
					"indices":10,
					"material":0
				},
				{
					"attributes":{
						"POSITION":16,
						"NORMAL":17
					},
					"indices":13,
					"material":3
				}
			]
		}
	],
	"textures":[
		{
			"sampler":0,
			"source":0
		},
		{
			"sampler":0,
			"source":0
		},		
{
    "sampler" : 1,
    "source" : 1
  }		
	],
	"images":[
		{
			"bufferView":14,
			"mimeType":"image/jpeg",
			"name":"Image"
		},
	    {
			"uriNice" : "images/fir1r.jpg",
			"uri" : "images/wood4.jpg"
		}
	],
	"accessors":[
		{
			"bufferView":0,
			"componentType":5126,
			"count":96,
			"max":[
				-661.9071044921875,
				258.3999938964844,
				-20.648799896240234
			],
			"min":[
				-758.7071533203125,
				3.7999801635742188,
				-21.387935638427734
			],
			"type":"VEC3"
		},
		{
			"bufferView":1,
			"componentType":5126,
			"count":96,
			"type":"VEC2"
		},
		{
			"bufferView":2,
			"componentType":5126,
			"count":96,
			"type":"VEC3"
		},
		{
			"bufferView":3,
			"componentType":5123,
			"count":132,
			"type":"SCALAR"
		},
		{
			"bufferView":4,
			"componentType":5126,
			"count":2112,
			"max":[
				-618.7066650390625,
				249.2978057861328,
				35.612796783447266
			],
			"min":[
				-718.7066650390625,
				0,
				-21.387937545776367
			],
			"type":"VEC3"
		},
		{
			"bufferView":5,
			"componentType":5126,
			"count":2112,
			"type":"VEC2"
		},
		{
			"bufferView":6,
			"componentType":5126,
			"count":2112,
			"type":"VEC3"
		},
		{
			"bufferView":7,
			"componentType":5123,
			"count":2904,
			"type":"SCALAR"
		},
		{
			"bufferView":8,
			"componentType":5126,
			"count":480,
			"max":[
				0.9066051840782166,
				12.235092163085938,
				2.663222312927246
			],
			"min":[
				-0.9066105484962463,
				-35.36509704589844,
				-1.8497143983840942
			],
			"type":"VEC3"
		},
		{
			"bufferView":9,
			"componentType":5126,
			"count":480,
			"type":"VEC3"
		},
		{
			"bufferView":10,
			"componentType":5123,
			"count":1392,
			"type":"SCALAR"
		},
		{
			"bufferView":11,
			"componentType":5126,
			"count":120,
			"max":[
				0.8053150773048401,
				10.259349822998047,
				1.6189299821853638
			],
			"min":[
				-0.805320143699646,
				-33.59130859375,
				-0.8054214715957642
			],
			"type":"VEC3"
		},
		{
			"bufferView":12,
			"componentType":5126,
			"count":120,
			"type":"VEC3"
		},
		{
			"bufferView":13,
			"componentType":5123,
			"count":348,
			"type":"SCALAR"
		},
		{
			"bufferView":15,
			"componentType":5126,
			"count":480,
			"max":[
				0.906611442565918,
				52.5167236328125,
				2.6632161140441895
			],
			"min":[
				-0.9066041707992554,
				4.916457653045654,
				-1.84972083568573
			],
			"type":"VEC3"
		},
		{
			"bufferView":16,
			"componentType":5126,
			"count":480,
			"type":"VEC3"
		},
		{
			"bufferView":17,
			"componentType":5126,
			"count":120,
			"max":[
				0.805321455001831,
				50.54098129272461,
				1.618923306465149
			],
			"min":[
				-0.8053137063980103,
				6.69024658203125,
				-0.8054280281066895
			],
			"type":"VEC3"
		},
		{
			"bufferView":18,
			"componentType":5126,
			"count":120,
			"type":"VEC3"
		}
	],
	"bufferViews":[
		{
			"buffer":0,
			"byteLength":1152,
			"byteOffset":0,
			"target":34962
		},
		{
			"buffer":0,
			"byteLength":768,
			"byteOffset":1152,
			"target":34962
		},
		{
			"buffer":0,
			"byteLength":1152,
			"byteOffset":1920,
			"target":34962
		},
		{
			"buffer":0,
			"byteLength":264,
			"byteOffset":3072,
			"target":34963
		},
		{
			"buffer":0,
			"byteLength":25344,
			"byteOffset":3336,
			"target":34962
		},
		{
			"buffer":0,
			"byteLength":16896,
			"byteOffset":28680,
			"target":34962
		},
		{
			"buffer":0,
			"byteLength":25344,
			"byteOffset":45576,
			"target":34962
		},
		{
			"buffer":0,
			"byteLength":5808,
			"byteOffset":70920,
			"target":34963
		},
		{
			"buffer":0,
			"byteLength":5760,
			"byteOffset":76728,
			"target":34962
		},
		{
			"buffer":0,
			"byteLength":5760,
			"byteOffset":82488,
			"target":34962
		},
		{
			"buffer":0,
			"byteLength":2784,
			"byteOffset":88248,
			"target":34963
		},
		{
			"buffer":0,
			"byteLength":1440,
			"byteOffset":91032,
			"target":34962
		},
		{
			"buffer":0,
			"byteLength":1440,
			"byteOffset":92472,
			"target":34962
		},
		{
			"buffer":0,
			"byteLength":696,
			"byteOffset":93912,
			"target":34963
		},
		{
			"buffer":0,
			"byteLength":90,
			"byteOffset":94608
		},
		{
			"buffer":0,
			"byteLength":5760,
			"byteOffset":94700,
			"target":34962
		},
		{
			"buffer":0,
			"byteLength":5760,
			"byteOffset":100460,
			"target":34962
		},
		{
			"buffer":0,
			"byteLength":1440,
			"byteOffset":106220,
			"target":34962
		},
		{
			"buffer":0,
			"byteLength":1440,
			"byteOffset":107660,
			"target":34962
		}
	],
	"samplers":[
		{
			"magFilter":9729,
			"minFilter":9987
		},
{
    "magFilter" : 9729,
    "minFilter" : 9987,
    "wrapS" : 33648,
    "wrapT" : 33648
  }
  		
	],
	"buffers":[
		{
			"byteLength":109100,
			"uri":"data:application/octet-stream;base64,"
		}
	]
}
